<?xml version="1.0" encoding="utf-8"?>
<!-- Generator: Adobe Illustrator 25.2.3, SVG Export Plug-In . SVG Version: 6.00 Build 0)  -->
<svg version="1.1" id="Layer_1" xmlns="http://www.w3.org/2000/svg" xmlns:xlink="http://www.w3.org/1999/xlink" x="0px" y="0px"
	 viewBox="0 0 335 338.7" style="enable-background:new 0 0 335 338.7;" xml:space="preserve">
<style type="text/css">
	.st0{fill:#1A1A1A;}
	.st1{clip-path:url(#SVGID_2_);}
	.st2{clip-path:url(#SVGID_4_);}
	.st3{fill:#C4C6C8;}
	.st4{fill:#C2C4C6;}
	.st5{fill:#C0C2C4;}
	.st6{fill:#BEC0C2;}
	.st7{fill:#BCBEC0;}
	.st8{fill:#BABCBE;}
	.st9{fill:#B8BABD;}
	.st10{fill:#B7B9BB;}
	.st11{fill:#B5B7B9;}
	.st12{fill:#B3B5B7;}
	.st13{fill:#B1B3B6;}
	.st14{fill:#AFB2B4;}
	.st15{fill:#AEB0B2;}
	.st16{fill:#ACAEB1;}
	.st17{fill:#AAACAF;}
	.st18{fill:#A9ABAD;}
	.st19{fill:#A7A9AC;}
	.st20{fill:#A5A8AA;}
	.st21{fill:#A4A6A9;}
	.st22{fill:#A2A4A7;}
	.st23{fill:#A1A3A5;}
	.st24{fill:#9FA1A4;}
	.st25{fill:#9EA0A2;}
	.st26{fill:#9C9EA1;}
	.st27{fill:#9B9D9F;}
	.st28{fill:#999B9E;}
	.st29{fill:#989A9C;}
	.st30{fill:#96989B;}
	.st31{fill:#95979A;}
	.st32{fill:#939698;}
	.st33{fill:#929497;}
	.st34{fill:#919395;}
	.st35{fill:#8F9194;}
	.st36{fill:#8E9093;}
	.st37{fill:#8D8F91;}
	.st38{fill:#8C8E90;}
	.st39{fill:#8A8C8F;}
	.st40{fill:#898B8E;}
	.st41{fill:#888A8C;}
	.st42{fill:#87888B;}
	.st43{fill:#85878A;}
	.st44{fill:#848689;}
	.st45{fill:#838587;}
	.st46{fill:#828486;}
	.st47{fill:#818285;}
	.st48{fill:#7F8184;}
	.st49{fill:#7E8083;}
	.st50{fill:#7D7F82;}
	.st51{fill:#7C7E80;}
	.st52{fill:#7B7D7F;}
	.st53{fill:#7A7C7E;}
	.st54{fill:#797A7D;}
	.st55{fill:#78797C;}
	.st56{fill:#77787B;}
	.st57{fill:#76777A;}
	.st58{fill:#757679;}
	.st59{fill:#747578;}
	.st60{fill:#727477;}
	.st61{fill:#717375;}
	.st62{fill:#707274;}
	.st63{fill:#6F7173;}
	.st64{fill:#6E7072;}
	.st65{fill:#6D6F71;}
	.st66{fill:#6C6E70;}
	.st67{fill:#6B6D6F;}
	.st68{fill:#6A6C6E;}
	.st69{fill:#6A6B6D;}
	.st70{fill:#696A6C;}
	.st71{fill:#68696B;}
	.st72{fill:#67686A;}
	.st73{fill:#666769;}
	.st74{fill:#656668;}
	.st75{fill:#646567;}
	.st76{fill:#636467;}
	.st77{fill:#626366;}
	.st78{fill:#616265;}
	.st79{fill:#606164;}
	.st80{fill:#5F6163;}
	.st81{fill:#5F6062;}
	.st82{fill:#5E5F61;}
	.st83{fill:#5D5E60;}
	.st84{fill:#5C5D5F;}
	.st85{fill:#5B5C5E;}
	.st86{fill:#5A5B5E;}
	.st87{fill:#5A5A5D;}
	.st88{fill:#595A5C;}
	.st89{fill:#58595B;}
	.st90{fill:#57585A;}
	.st91{fill:#565759;}
	.st92{fill:#565659;}
	.st93{fill:#555658;}
	.st94{fill:#545557;}
	.st95{fill:#545456;}
	.st96{fill:#535355;}
	.st97{fill:#525355;}
	.st98{fill:#515254;}
	.st99{fill:#515153;}
	.st100{fill:#505052;}
	.st101{fill:#4F5052;}
	.st102{fill:#4F4F51;}
	.st103{fill:#4E4E50;}
	.st104{fill:#4D4E50;}
	.st105{fill:#4D4D4F;}
	.st106{fill:#4C4C4E;}
	.st107{fill:#4B4B4D;}
	.st108{fill:#4A4B4C;}
	.st109{fill:#4A4A4C;}
	.st110{fill:#49494B;}
	.st111{fill:#48484A;}
	.st112{fill:#484849;}
	.st113{fill:#474749;}
	.st114{fill:#474748;}
	.st115{fill:#464648;}
	.st116{fill:#464547;}
	.st117{fill:#454547;}
	.st118{fill:#454446;}
	.st119{fill:#444446;}
	.st120{fill:#444345;}
	.st121{fill:#434345;}
	.st122{fill:#434344;}
	.st123{fill:#424244;}
	.st124{fill:#424243;}
	.st125{fill:#424143;}
	.st126{fill:#414143;}
	.st127{fill:#414042;}
	.st128{fill:#404041;}
	.st129{fill:#403F41;}
	.st130{fill:#3F3F40;}
	.st131{fill:#3F3E40;}
	.st132{fill:#3E3E3F;}
	.st133{fill:#3E3D3F;}
	.st134{fill:#3E3D3E;}
	.st135{fill:#3D3D3E;}
	.st136{fill:#3D3C3E;}
	.st137{fill:#3D3C3D;}
	.st138{fill:#3C3C3D;}
	.st139{fill:#3C3B3D;}
	.st140{fill:#3C3B3C;}
	.st141{fill:#3B3B3C;}
	.st142{fill:#3B3A3C;}
	.st143{fill:#3B3A3B;}
	.st144{fill:#3A393B;}
	.st145{fill:#3A393A;}
	.st146{fill:#414142;}
	.st147{clip-path:url(#SVGID_6_);}
</style>
<g id="Layer_2_1_">
	<g id="Layer_1-2">
		<polygon class="st0" points="149.1,328.2 9.1,188.2 9.1,150 149.1,290 270,169.1 289.1,188.2 		"/>
		<g>
			<defs>
				<polygon id="SVGID_1_" points="149.1,328.2 9.1,188.2 9.1,150 149.1,290 270,169.1 289.1,188.2 				"/>
			</defs>
			<clipPath id="SVGID_2_">
				<use xlink:href="#SVGID_1_"  style="overflow:visible;"/>
			</clipPath>
			<g class="st1">
				<path class="st0" d="M-10,169.1l159.1,159.1L-10,169.1z"/>
				
					<rect x="69.4" y="135.7" transform="matrix(0.7071 -0.7071 0.7071 0.7071 -154.973 122.2192)" class="st0" width="1.2" height="225"/>
				
					<rect x="70.2" y="134.9" transform="matrix(0.7071 -0.7071 0.7071 0.7071 -154.2216 122.5707)" class="st0" width="1.2" height="225"/>
				
					<rect x="71" y="134.1" transform="matrix(0.7071 -0.7071 0.7071 0.7071 -153.3994 122.8929)" class="st0" width="1.2" height="225"/>
				
					<rect x="71.9" y="133.2" transform="matrix(0.7071 -0.7071 0.7071 0.7071 -152.5065 123.2443)" class="st0" width="1.2" height="225"/>
				
					<rect x="72.7" y="132.4" transform="matrix(0.7071 -0.7071 0.7071 0.7071 -151.6964 123.5958)" class="st0" width="1.2" height="225"/>
				
					<rect x="73.5" y="131.6" transform="matrix(0.7071 -0.7071 0.7071 0.7071 -150.8743 123.918)" class="st0" width="1.2" height="225"/>
				
					<rect x="74.4" y="130.8" transform="matrix(0.7071 -0.7071 0.7071 0.7071 -150.0521 124.2987)" class="st0" width="1.2" height="225"/>
				
					<rect x="75.2" y="129.9" transform="matrix(0.7071 -0.7071 0.7071 0.7071 -149.1713 124.6209)" class="st0" width="1.2" height="225"/>
				
					<rect x="76" y="129.1" transform="matrix(0.7071 -0.7071 0.7071 0.7071 -148.4198 124.9724)" class="st0" width="1.2" height="225"/>
				
					<rect x="76.8" y="128.3" transform="matrix(0.7071 -0.7071 0.7071 0.7071 -147.5977 125.2946)" class="st0" width="1.2" height="225"/>
				
					<rect x="77.7" y="127.4" transform="matrix(0.7071 -0.7071 0.7071 0.7071 -146.7048 125.646)" class="st0" width="1.2" height="225"/>
				
					<rect x="78.5" y="126.6" transform="matrix(0.7071 -0.7071 0.7071 0.7071 -145.8947 125.9975)" class="st0" width="1.2" height="225"/>
				
					<rect x="79.3" y="125.8" transform="matrix(0.7071 -0.7071 0.7071 0.7071 -145.0725 126.3197)" class="st0" width="1.2" height="225"/>
				
					<rect x="80.1" y="125" transform="matrix(0.7071 -0.7071 0.7071 0.7071 -144.3211 126.6712)" class="st0" width="1.2" height="225"/>
				
					<rect x="80.9" y="124.1" transform="matrix(0.7071 -0.7071 0.7071 0.7071 -143.3989 126.9519)" class="st0" width="1.2" height="225"/>
				
					<rect x="81.8" y="123.3" transform="matrix(0.7071 -0.7071 0.7071 0.7071 -142.6181 127.3741)" class="st0" width="1.2" height="225"/>
				
					<rect x="82.6" y="122.5" transform="matrix(0.7071 -0.7071 0.7071 0.7071 -141.7959 127.6963)" class="st0" width="1.2" height="225"/>
				
					<rect x="83.5" y="121.6" transform="matrix(0.7071 -0.7071 0.7071 0.7071 -140.903 128.0478)" class="st0" width="1.2" height="225"/>
				
					<rect x="84.3" y="120.8" transform="matrix(0.7071 -0.7071 0.7071 0.7071 -140.093 128.3992)" class="st0" width="1.2" height="225"/>
				
					<rect x="85.1" y="120" transform="matrix(0.7071 -0.7071 0.7071 0.7071 -139.2708 128.7214)" class="st0" width="1.2" height="225"/>
				
					<rect x="85.9" y="119.2" transform="matrix(0.7071 -0.7071 0.7071 0.7071 -138.5193 129.0729)" class="st0" width="1.2" height="225"/>
				
					<rect x="86.8" y="118.3" transform="matrix(0.7071 -0.7071 0.7071 0.7071 -137.6264 129.4244)" class="st0" width="1.2" height="225"/>
				
					<rect x="87.6" y="117.5" transform="matrix(0.7071 -0.7071 0.7071 0.7071 -136.8164 129.7758)" class="st0" width="1.2" height="225"/>
				
					<rect x="88.4" y="116.7" transform="matrix(0.7071 -0.7071 0.7071 0.7071 -135.9942 130.098)" class="st0" width="1.2" height="225"/>
				
					<rect x="89.2" y="115.9" transform="matrix(0.7071 -0.7071 0.7071 0.7071 -135.172 130.4202)" class="st0" width="1.2" height="225"/>
				
					<rect x="90.1" y="115" transform="matrix(0.7071 -0.7071 0.7071 0.7071 -134.2913 130.801)" class="st0" width="1.2" height="225"/>
				
					<rect x="90.9" y="114.2" transform="matrix(0.7071 -0.7071 0.7071 0.7071 -133.4691 131.1232)" class="st0" width="1.2" height="225"/>
				
					<rect x="91.7" y="113.4" transform="matrix(0.7071 -0.7071 0.7071 0.7071 -132.7176 131.4746)" class="st0" width="1.2" height="225"/>
				
					<rect x="92.6" y="112.5" transform="matrix(0.7071 -0.7071 0.7071 0.7071 -131.8247 131.8261)" class="st0" width="1.2" height="225"/>
				
					<rect x="93.4" y="111.7" transform="matrix(0.7071 -0.7071 0.7071 0.7071 -131.0147 132.1776)" class="st0" width="1.2" height="225"/>
				
					<rect x="94.2" y="110.9" transform="matrix(0.7071 -0.7071 0.7071 0.7071 -130.1925 132.4997)" class="st0" width="1.2" height="225"/>
				
					<rect x="95" y="110.1" transform="matrix(0.7071 -0.7071 0.7071 0.7071 -129.3703 132.8219)" class="st0" width="1.2" height="225"/>
				
					<rect x="95.9" y="109.3" transform="matrix(0.7071 -0.7071 0.7071 0.7071 -128.5481 133.2027)" class="st0" width="1.2" height="225"/>
				
					<rect x="96.7" y="108.4" transform="matrix(0.7071 -0.7071 0.7071 0.7071 -127.6674 133.5249)" class="st0" width="1.2" height="225"/>
				
					<rect x="97.5" y="107.6" transform="matrix(0.7071 -0.7071 0.7071 0.7071 -126.9159 133.8763)" class="st0" width="1.2" height="225"/>
				
					<rect x="98.4" y="106.7" transform="matrix(0.7071 -0.7071 0.7071 0.7071 -126.023 134.2278)" class="st0" width="1.2" height="225"/>
				
					<rect x="99.2" y="105.9" transform="matrix(0.7071 -0.7071 0.7071 0.7071 -125.2129 134.5793)" class="st0" width="1.2" height="225"/>
				
					<rect x="100" y="105.1" transform="matrix(0.7071 -0.7071 0.7071 0.7071 -124.3908 134.9015)" class="st0" width="1.2" height="225"/>
				
					<rect x="100.8" y="104.3" transform="matrix(0.7071 -0.7071 0.7071 0.7071 -123.5686 135.2236)" class="st0" width="1.2" height="225"/>
				
					<rect x="101.7" y="103.5" transform="matrix(0.7071 -0.7071 0.7071 0.7071 -122.7464 135.6044)" class="st0" width="1.2" height="225"/>
				
					<rect x="102.5" y="102.6" transform="matrix(0.7071 -0.7071 0.7071 0.7071 -121.8656 135.9266)" class="st0" width="1.2" height="225"/>
				
					<rect x="103.3" y="101.8" transform="matrix(0.7071 -0.7071 0.7071 0.7071 -121.1142 136.2781)" class="st0" width="1.2" height="225"/>
				
					<rect x="104.1" y="101" transform="matrix(0.7071 -0.7071 0.7071 0.7071 -120.292 136.6003)" class="st0" width="1.2" height="225"/>
				
					<rect x="105" y="100.2" transform="matrix(0.7071 -0.7071 0.7071 0.7071 -119.4698 136.981)" class="st0" width="1.2" height="225"/>
				
					<rect x="105.8" y="99.3" transform="matrix(0.7071 -0.7071 0.7071 0.7071 -118.589 137.3032)" class="st0" width="1.2" height="225"/>
				
					<rect x="106.6" y="98.5" transform="matrix(0.7071 -0.7071 0.7071 0.7071 -117.7669 137.6254)" class="st0" width="1.2" height="225"/>
				
					<rect x="107.5" y="97.7" transform="matrix(0.7071 -0.7071 0.7071 0.7071 -116.9447 138.0061)" class="st0" width="1.2" height="225"/>
				
					<rect x="108.3" y="96.8" transform="matrix(0.7071 -0.7071 0.7071 0.7071 -116.0639 138.3283)" class="st0" width="1.2" height="225"/>
				
					<rect x="109.1" y="96" transform="matrix(0.7071 -0.7071 0.7071 0.7071 -115.3124 138.6798)" class="st0" width="1.2" height="225"/>
				
					<rect x="109.9" y="95.2" transform="matrix(0.7071 -0.7071 0.7071 0.7071 -114.4902 139.002)" class="st0" width="1.2" height="225"/>
				
					<rect x="110.8" y="94.4" transform="matrix(0.7071 -0.7071 0.7071 0.7071 -113.6681 139.3827)" class="st0" width="1.2" height="225"/>
				
					<rect x="111.6" y="93.5" transform="matrix(0.7071 -0.7071 0.7071 0.7071 -112.7873 139.7049)" class="st0" width="1.2" height="225"/>
				
					<rect x="112.4" y="92.7" transform="matrix(0.7071 -0.7071 0.7071 0.7071 -111.9651 140.0271)" class="st0" width="1.2" height="225"/>
				
					<rect x="113.2" y="91.9" transform="matrix(0.7071 -0.7071 0.7071 0.7071 -111.2137 140.3786)" class="st0" width="1.2" height="225"/>
				
					<rect x="114.1" y="91" transform="matrix(0.7071 -0.7071 0.7071 0.7071 -110.2622 140.73)" class="st0" width="1.2" height="225"/>
				
					<rect x="114.9" y="90.2" transform="matrix(0.7071 -0.7071 0.7071 0.7071 -109.5107 141.0815)" class="st0" width="1.2" height="225"/>
				
					<rect x="115.7" y="89.4" transform="matrix(0.7071 -0.7071 0.7071 0.7071 -108.6885 141.4037)" class="st0" width="1.2" height="225"/>
				
					<rect x="116.6" y="88.6" transform="matrix(0.7071 -0.7071 0.7071 0.7071 -107.8663 141.7845)" class="st0" width="1.2" height="225"/>
				
					<rect x="117.4" y="87.7" transform="matrix(0.7071 -0.7071 0.7071 0.7071 -106.9856 142.1066)" class="st0" width="1.2" height="225"/>
				
					<rect x="118.2" y="86.9" transform="matrix(0.7071 -0.7071 0.7071 0.7071 -106.1634 142.4288)" class="st0" width="1.2" height="225"/>
				
					<rect x="119" y="86.1" transform="matrix(0.7071 -0.7071 0.7071 0.7071 -105.4119 142.7803)" class="st0" width="1.2" height="225"/>
				
					<rect x="119.9" y="85.2" transform="matrix(0.7071 -0.7071 0.7071 0.7071 -104.519 143.1318)" class="st0" width="1.2" height="225"/>
				
					<rect x="120.7" y="84.4" transform="matrix(0.7071 -0.7071 0.7071 0.7071 -103.709 143.4832)" class="st0" width="1.2" height="225"/>
				
					<rect x="121.5" y="83.6" transform="matrix(0.7071 -0.7071 0.7071 0.7071 -102.8868 143.8054)" class="st0" width="1.2" height="225"/>
				
					<rect x="122.3" y="82.8" transform="matrix(0.7071 -0.7071 0.7071 0.7071 -102.0646 144.1276)" class="st0" width="1.2" height="225"/>
				
					<rect x="123.2" y="81.9" transform="matrix(0.7071 -0.7071 0.7071 0.7071 -101.1839 144.5084)" class="st0" width="1.2" height="225"/>
				
					<rect x="124" y="81.1" transform="matrix(0.7071 -0.7071 0.7071 0.7071 -100.3617 144.8306)" class="st0" width="1.2" height="225"/>
				
					<rect x="124.8" y="80.3" transform="matrix(0.7071 -0.7071 0.7071 0.7071 -99.6102 145.182)" class="st0" width="1.2" height="225"/>
				
					<rect x="125.7" y="79.4" transform="matrix(0.7071 -0.7071 0.7071 0.7071 -98.7173 145.5335)" class="st0" width="1.2" height="225"/>
				
					<rect x="126.5" y="78.6" transform="matrix(0.7071 -0.7071 0.7071 0.7071 -97.9073 145.885)" class="st0" width="1.2" height="225"/>
				
					<rect x="127.3" y="77.8" transform="matrix(0.7071 -0.7071 0.7071 0.7071 -97.0851 146.2071)" class="st0" width="1.2" height="225"/>
				
					<rect x="128.1" y="77" transform="matrix(0.7071 -0.7071 0.7071 0.7071 -96.2629 146.5293)" class="st0" width="1.2" height="225"/>
				
					<rect x="129" y="76.2" transform="matrix(0.7071 -0.7071 0.7071 0.7071 -95.4407 146.9101)" class="st0" width="1.2" height="225"/>
				
					<rect x="129.8" y="75.3" transform="matrix(0.7071 -0.7071 0.7071 0.7071 -94.56 147.2323)" class="st0" width="1.2" height="225"/>
				
					<rect x="130.6" y="74.5" transform="matrix(0.7071 -0.7071 0.7071 0.7071 -93.8085 147.5837)" class="st0" width="1.2" height="225"/>
				
					<rect x="131.5" y="73.6" transform="matrix(0.7071 -0.7071 0.7071 0.7071 -92.9156 147.9352)" class="st0" width="1.2" height="225"/>
				
					<rect x="132.3" y="72.8" transform="matrix(0.7071 -0.7071 0.7071 0.7071 -92.1055 148.2867)" class="st0" width="1.2" height="225"/>
				
					<rect x="133.1" y="72" transform="matrix(0.7071 -0.7071 0.7071 0.7071 -91.2834 148.6089)" class="st0" width="1.2" height="225"/>
				
					<rect x="133.9" y="71.2" transform="matrix(0.7071 -0.7071 0.7071 0.7071 -90.4612 148.9311)" class="st0" width="1.2" height="225"/>
				
					<rect x="134.8" y="70.4" transform="matrix(0.7071 -0.7071 0.7071 0.7071 -89.639 149.3118)" class="st0" width="1.2" height="225"/>
				
					<rect x="135.6" y="69.5" transform="matrix(0.7071 -0.7071 0.7071 0.7071 -88.7582 149.634)" class="st0" width="1.2" height="225"/>
				
					<rect x="136.4" y="68.7" transform="matrix(0.7071 -0.7071 0.7071 0.7071 -88.0068 149.9855)" class="st0" width="1.2" height="225"/>
				
					<rect x="137.2" y="67.9" transform="matrix(0.7071 -0.7071 0.7071 0.7071 -87.1846 150.3076)" class="st0" width="1.2" height="225"/>
				
					<rect x="138" y="67" transform="matrix(0.7071 -0.7071 0.7071 0.7071 -86.3331 150.6177)" class="st0" width="1.2" height="225"/>
				
					<rect x="138.9" y="66.2" transform="matrix(0.7071 -0.7071 0.7071 0.7071 -85.4816 151.0106)" class="st0" width="1.2" height="225"/>
				
					<rect x="139.7" y="65.4" transform="matrix(0.7071 -0.7071 0.7071 0.7071 -84.6594 151.3328)" class="st0" width="1.2" height="225"/>
				
					<rect x="140.6" y="64.6" transform="matrix(0.7071 -0.7071 0.7071 0.7071 -83.8373 151.7135)" class="st0" width="1.2" height="225"/>
				
					<rect x="141.4" y="63.7" transform="matrix(0.7071 -0.7071 0.7071 0.7071 -82.9565 152.0357)" class="st0" width="1.2" height="225"/>
				
					<rect x="142.2" y="62.9" transform="matrix(0.7071 -0.7071 0.7071 0.7071 -82.205 152.3872)" class="st0" width="1.2" height="225"/>
				
					<rect x="143" y="62.1" transform="matrix(0.7071 -0.7071 0.7071 0.7071 -81.3829 152.7094)" class="st0" width="1.2" height="225"/>
				
					<rect x="143.9" y="61.3" transform="matrix(0.7071 -0.7071 0.7071 0.7071 -80.5607 153.0901)" class="st0" width="1.2" height="225"/>
				
					<rect x="144.7" y="60.4" transform="matrix(0.7071 -0.7071 0.7071 0.7071 -79.6799 153.4123)" class="st0" width="1.2" height="225"/>
				
					<rect x="145.5" y="59.6" transform="matrix(0.7071 -0.7071 0.7071 0.7071 -78.8577 153.7345)" class="st0" width="1.2" height="225"/>
				
					<rect x="146.3" y="58.8" transform="matrix(0.7071 -0.7071 0.7071 0.7071 -78.1063 154.086)" class="st0" width="1.2" height="225"/>
				
					<rect x="147.2" y="57.9" transform="matrix(0.7071 -0.7071 0.7071 0.7071 -77.1548 154.4374)" class="st0" width="1.2" height="225"/>
				
					<rect x="148" y="57.1" transform="matrix(0.7071 -0.7071 0.7071 0.7071 -76.4033 154.7889)" class="st0" width="1.2" height="225"/>
				
					<rect x="148.8" y="56.3" transform="matrix(0.7071 -0.7071 0.7071 0.7071 -75.5811 155.1111)" class="st0" width="1.2" height="225"/>
				
					<rect x="149.7" y="55.5" transform="matrix(0.7071 -0.7071 0.7071 0.7071 -74.7589 155.4919)" class="st0" width="1.2" height="225"/>
				
					<rect x="150.5" y="54.6" transform="matrix(0.7071 -0.7071 0.7071 0.7071 -73.8782 155.814)" class="st0" width="1.2" height="225"/>
				
					<rect x="151.3" y="53.8" transform="matrix(0.7071 -0.7071 0.7071 0.7071 -73.056 156.1362)" class="st0" width="1.2" height="225"/>
				
					<rect x="152.1" y="53" transform="matrix(0.7071 -0.7071 0.7071 0.7071 -72.3045 156.4877)" class="st0" width="1.2" height="225"/>
				
					<rect x="153" y="52.1" transform="matrix(0.7071 -0.7071 0.7071 0.7071 -71.4116 156.8392)" class="st0" width="1.2" height="225"/>
				
					<rect x="153.8" y="51.3" transform="matrix(0.7071 -0.7071 0.7071 0.7071 -70.6016 157.1906)" class="st0" width="1.2" height="225"/>
				
					<rect x="154.6" y="50.5" transform="matrix(0.7071 -0.7071 0.7071 0.7071 -69.7794 157.5128)" class="st0" width="1.2" height="225"/>
				
					<rect x="155.5" y="49.7" transform="matrix(0.7071 -0.7071 0.7071 0.7071 -68.9572 157.8936)" class="st0" width="1.2" height="225"/>
				
					<rect x="156.3" y="48.8" transform="matrix(0.7071 -0.7071 0.7071 0.7071 -68.0765 158.2158)" class="st0" width="1.2" height="225"/>
				
					<rect x="157.1" y="48" transform="matrix(0.7071 -0.7071 0.7071 0.7071 -67.2543 158.5379)" class="st0" width="1.2" height="225"/>
				
					<rect x="157.9" y="47.2" transform="matrix(0.7071 -0.7071 0.7071 0.7071 -66.5028 158.8894)" class="st0" width="1.2" height="225"/>
				
					<rect x="158.8" y="46.3" transform="matrix(0.7071 -0.7071 0.7071 0.7071 -65.6099 159.2409)" class="st0" width="1.2" height="225"/>
				
					<rect x="159.6" y="45.5" transform="matrix(0.7071 -0.7071 0.7071 0.7071 -64.7999 159.5924)" class="st0" width="1.2" height="225"/>
				
					<rect x="160.4" y="44.7" transform="matrix(0.7071 -0.7071 0.7071 0.7071 -63.9777 159.9146)" class="st0" width="1.2" height="225"/>
				
					<rect x="161.2" y="44" transform="matrix(0.7071 -0.7071 0.7071 0.7071 -63.2262 160.266)" class="st0" width="1.2" height="225"/>
				
					<rect x="162.1" y="43.1" transform="matrix(0.7071 -0.7071 0.7071 0.7071 -62.3333 160.6175)" class="st0" width="1.2" height="225"/>
				
					<rect x="162.9" y="42.1" transform="matrix(0.7071 -0.7071 0.7071 0.7071 -61.4526 160.9397)" class="st0" width="1.2" height="225"/>
				
					<rect x="163.7" y="41.4" transform="matrix(0.7071 -0.7071 0.7071 0.7071 -60.7011 161.2911)" class="st0" width="1.2" height="225"/>
				
					<rect x="164.6" y="40.5" transform="matrix(0.7071 -0.7071 0.7071 0.7071 -59.8082 161.6426)" class="st0" width="1.2" height="225"/>
				
					<rect x="165.4" y="39.7" transform="matrix(0.7071 -0.7071 0.7071 0.7071 -58.9981 161.9941)" class="st0" width="1.2" height="225"/>
				
					<rect x="166.2" y="38.9" transform="matrix(0.7071 -0.7071 0.7071 0.7071 -58.1759 162.3163)" class="st0" width="1.2" height="225"/>
				
					<rect x="167" y="38.2" transform="matrix(0.7071 -0.7071 0.7071 0.7071 -57.4245 162.6677)" class="st0" width="1.2" height="225"/>
				
					<rect x="167.9" y="37.2" transform="matrix(0.7071 -0.7071 0.7071 0.7071 -56.5316 163.0192)" class="st0" width="1.2" height="225"/>
				
					<rect x="168.7" y="36.3" transform="matrix(0.7071 -0.7071 0.7071 0.7071 -55.6508 163.3414)" class="st0" width="1.2" height="225"/>
				
					<rect x="169.5" y="35.6" transform="matrix(0.7071 -0.7071 0.7071 0.7071 -54.8994 163.6929)" class="st0" width="1.2" height="225"/>
				
					<rect x="170.3" y="34.8" transform="matrix(0.7071 -0.7071 0.7071 0.7071 -54.0772 164.015)" class="st0" width="1.2" height="225"/>
				
					<rect x="171.2" y="33.9" transform="matrix(0.7071 -0.7071 0.7071 0.7071 -53.1964 164.3958)" class="st0" width="1.2" height="225"/>
				
					<rect x="172" y="33.1" transform="matrix(0.7071 -0.7071 0.7071 0.7071 -52.3742 164.718)" class="st0" width="1.2" height="225"/>
				
					<rect x="172.8" y="32.3" transform="matrix(0.7071 -0.7071 0.7071 0.7071 -51.6228 165.0695)" class="st0" width="1.2" height="225"/>
				
					<rect x="173.7" y="31.4" transform="matrix(0.7071 -0.7071 0.7071 0.7071 -50.7299 165.4209)" class="st0" width="1.2" height="225"/>
				
					<rect x="174.5" y="30.5" transform="matrix(0.7071 -0.7071 0.7071 0.7071 -49.8491 165.7431)" class="st0" width="1.2" height="225"/>
				
					<rect x="175.3" y="29.8" transform="matrix(0.7071 -0.7071 0.7071 0.7071 -49.0976 166.0946)" class="st0" width="1.2" height="225"/>
				
					<rect x="176.1" y="29" transform="matrix(0.7071 -0.7071 0.7071 0.7071 -48.2755 166.4168)" class="st0" width="1.2" height="225"/>
				
					<rect x="177" y="28.2" transform="matrix(0.7071 -0.7071 0.7071 0.7071 -47.4533 166.7975)" class="st0" width="1.2" height="225"/>
				
					<rect x="177.8" y="27.3" transform="matrix(0.7071 -0.7071 0.7071 0.7071 -46.5725 167.1197)" class="st0" width="1.2" height="225"/>
				
					<rect x="178.6" y="26.5" transform="matrix(0.7071 -0.7071 0.7071 0.7071 -45.821 167.4712)" class="st0" width="1.2" height="225"/>
				
					<rect x="179.4" y="25.7" transform="matrix(0.7071 -0.7071 0.7071 0.7071 -44.9988 167.7934)" class="st0" width="1.2" height="225"/>
				
					<rect x="180.3" y="24.7" transform="matrix(0.7071 -0.7071 0.7071 0.7071 -44.0474 168.1449)" class="st0" width="1.2" height="225"/>
				
					<rect x="181.1" y="24" transform="matrix(0.7071 -0.7071 0.7071 0.7071 -43.2959 168.4963)" class="st0" width="1.2" height="225"/>
				
					<rect x="181.9" y="23.2" transform="matrix(0.7071 -0.7071 0.7071 0.7071 -42.4737 168.8185)" class="st0" width="1.2" height="225"/>
				
					<rect x="182.8" y="22.4" transform="matrix(0.7071 -0.7071 0.7071 0.7071 -41.6515 169.1993)" class="st0" width="1.2" height="225"/>
				
					<rect x="183.6" y="21.5" transform="matrix(0.7071 -0.7071 0.7071 0.7071 -40.7708 169.5214)" class="st0" width="1.2" height="225"/>
				
					<rect x="184.4" y="20.7" transform="matrix(0.7071 -0.7071 0.7071 0.7071 -40.0193 169.8729)" class="st0" width="1.2" height="225"/>
				
					<rect x="185.2" y="19.9" transform="matrix(0.7071 -0.7071 0.7071 0.7071 -39.1971 170.1951)" class="st0" width="1.2" height="225"/>
				
					<rect x="186.1" y="19" transform="matrix(0.7071 -0.7071 0.7071 0.7071 -38.3042 170.5466)" class="st0" width="1.2" height="225"/>
				
					<rect x="186.9" y="18.2" transform="matrix(0.7071 -0.7071 0.7071 0.7071 -37.4942 170.898)" class="st0" width="1.2" height="225"/>
				
					<rect x="187.7" y="17.4" transform="matrix(0.7071 -0.7071 0.7071 0.7071 -36.672 171.2202)" class="st0" width="1.2" height="225"/>
				
					<rect x="188.6" y="16.6" transform="matrix(0.7071 -0.7071 0.7071 0.7071 -35.8498 171.601)" class="st0" width="1.2" height="225"/>
				
					<rect x="189.4" y="15.7" transform="matrix(0.7071 -0.7071 0.7071 0.7071 -34.9691 171.9232)" class="st0" width="1.2" height="225"/>
				
					<rect x="190.2" y="14.9" transform="matrix(0.7071 -0.7071 0.7071 0.7071 -34.2176 172.2746)" class="st0" width="1.2" height="225"/>
				
					<rect x="191" y="14.1" transform="matrix(0.7071 -0.7071 0.7071 0.7071 -33.3954 172.5968)" class="st0" width="1.2" height="225"/>
				
					<rect x="191.9" y="13.2" transform="matrix(0.7071 -0.7071 0.7071 0.7071 -32.5025 172.9483)" class="st0" width="1.2" height="225"/>
				
					<rect x="192.7" y="12.4" transform="matrix(0.7071 -0.7071 0.7071 0.7071 -31.6925 173.2998)" class="st0" width="1.2" height="225"/>
				
					<rect x="193.5" y="11.6" transform="matrix(0.7071 -0.7071 0.7071 0.7071 -30.8703 173.6219)" class="st0" width="1.2" height="225"/>
				
					<rect x="194.3" y="10.8" transform="matrix(0.7071 -0.7071 0.7071 0.7071 -30.1188 173.9734)" class="st0" width="1.2" height="225"/>
				
					<rect x="195.1" y="9.9" transform="matrix(0.7071 -0.7071 0.7071 0.7071 -29.1966 174.2542)" class="st0" width="1.2" height="225"/>
				
					<rect x="196" y="9.1" transform="matrix(0.7071 -0.7071 0.7071 0.7071 -28.4159 174.6764)" class="st0" width="1.2" height="225"/>
				
					<rect x="196.8" y="8.3" transform="matrix(0.7071 -0.7071 0.7071 0.7071 -27.5937 174.9986)" class="st0" width="1.2" height="225"/>
				
					<rect x="197.7" y="7.4" transform="matrix(0.7071 -0.7071 0.7071 0.7071 -26.7008 175.35)" class="st0" width="1.2" height="225"/>
				
					<rect x="198.5" y="6.6" transform="matrix(0.7071 -0.7071 0.7071 0.7071 -25.8907 175.7015)" class="st0" width="1.2" height="225"/>
				
					<rect x="199.3" y="5.8" transform="matrix(0.7071 -0.7071 0.7071 0.7071 -25.0686 176.0237)" class="st0" width="1.2" height="225"/>
				
					<rect x="200.1" y="5" transform="matrix(0.7071 -0.7071 0.7071 0.7071 -24.3171 176.3752)" class="st0" width="1.2" height="225"/>
				
					<rect x="201" y="4.1" transform="matrix(0.7071 -0.7071 0.7071 0.7071 -23.4242 176.7266)" class="st0" width="1.2" height="225"/>
				
					<rect x="201.8" y="3.3" transform="matrix(0.7071 -0.7071 0.7071 0.7071 -22.6141 177.0781)" class="st0" width="1.2" height="225"/>
				
					<rect x="202.6" y="2.5" transform="matrix(0.7071 -0.7071 0.7071 0.7071 -21.792 177.4003)" class="st0" width="1.2" height="225"/>
				
					<rect x="203.4" y="1.7" transform="matrix(0.7071 -0.7071 0.7071 0.7071 -20.9698 177.7225)" class="st0" width="1.2" height="225"/>
				
					<rect x="204.3" y="0.8" transform="matrix(0.7071 -0.7071 0.7071 0.7071 -20.089 178.1032)" class="st0" width="1.2" height="225"/>
				
					<rect x="205.1" y="0" transform="matrix(0.7071 -0.7071 0.7071 0.7071 -19.2668 178.4254)" class="st0" width="1.2" height="225"/>
				
					<rect x="205.9" y="-0.8" transform="matrix(0.7071 -0.7071 0.7071 0.7071 -18.5154 178.7769)" class="st0" width="1.2" height="225"/>
				
					<rect x="206.8" y="-1.7" transform="matrix(0.7071 -0.7071 0.7071 0.7071 -17.6225 179.1283)" class="st0" width="1.2" height="225"/>
				
					<rect x="207.6" y="-2.5" transform="matrix(0.7071 -0.7071 0.7071 0.7071 -16.8124 179.4798)" class="st0" width="1.2" height="225"/>
				
					<rect x="208.4" y="-3.3" transform="matrix(0.7071 -0.7071 0.7071 0.7071 -15.9902 179.802)" class="st0" width="1.2" height="225"/>
				<rect x="209.4" y="-3.7" class="st0" width="0" height="225"/>
				<rect x="209.4" y="-3.7" class="st0" width="0" height="225"/>
				<rect x="209.5" y="-3.8" class="st0" width="0" height="225"/>
				<rect x="209.5" y="-3.8" class="st0" width="0" height="225"/>
				<rect x="209.5" y="-3.8" class="st0" width="0" height="225"/>
				<rect x="209.5" y="-3.8" class="st0" width="0" height="225"/>
				<rect x="209.5" y="-3.8" class="st0" width="0" height="225"/>
				<path class="st0" d="M289.1,188.2L130,29.1L289.1,188.2z"/>
			</g>
		</g>
		<g>
			<defs>
				<polygon id="SVGID_3_" points="9.1,150 149.1,10 187.3,10 47.3,150 168.2,270.9 149.1,290 				"/>
			</defs>
			<clipPath id="SVGID_4_">
				<use xlink:href="#SVGID_3_"  style="overflow:visible;"/>
			</clipPath>
			<g class="st2">
				<path class="st3" d="M9.1,150l140,140L9.1,150z"/>
				
					<rect x="79" y="120.5" transform="matrix(0.7071 -0.7071 0.7071 0.7071 -131.9169 120.5879)" class="st3" width="1.3" height="198"/>
				
					<rect x="79.9" y="119.7" transform="matrix(0.7071 -0.7071 0.7071 0.7071 -131.0362 120.9687)" class="st4" width="1.3" height="198"/>
				
					<rect x="80.8" y="118.7" transform="matrix(0.7071 -0.7071 0.7071 0.7071 -130.0847 121.3787)" class="st5" width="1.3" height="198"/>
				
					<rect x="81.8" y="117.8" transform="matrix(0.7071 -0.7071 0.7071 0.7071 -129.1454 121.7595)" class="st6" width="1.3" height="198"/>
				
					<rect x="82.7" y="116.8" transform="matrix(0.7071 -0.7071 0.7071 0.7071 -128.1939 122.1695)" class="st7" width="1.3" height="198"/>
				
					<rect x="83.7" y="115.8" transform="matrix(0.7071 -0.7071 0.7071 0.7071 -127.1838 122.521)" class="st8" width="1.3" height="198"/>
				
					<rect x="84.6" y="114.8" transform="matrix(0.7071 -0.7071 0.7071 0.7071 -126.2324 122.931)" class="st9" width="1.3" height="198"/>
				
					<rect x="85.5" y="114" transform="matrix(0.7071 -0.7071 0.7071 0.7071 -125.3516 123.3118)" class="st10" width="1.3" height="198"/>
				
					<rect x="86.5" y="113" transform="matrix(0.7071 -0.7071 0.7071 0.7071 -124.4122 123.6926)" class="st11" width="1.3" height="198"/>
				
					<rect x="87.4" y="112.1" transform="matrix(0.7071 -0.7071 0.7071 0.7071 -123.4608 124.1026)" class="st12" width="1.3" height="198"/>
				
					<rect x="88.4" y="111.1" transform="matrix(0.7071 -0.7071 0.7071 0.7071 -122.5214 124.4834)" class="st13" width="1.3" height="198"/>
				
					<rect x="89.3" y="110.2" transform="matrix(0.7071 -0.7071 0.7071 0.7071 -121.57 124.8934)" class="st14" width="1.3" height="198"/>
				
					<rect x="90.3" y="109.3" transform="matrix(0.7071 -0.7071 0.7071 0.7071 -120.6599 125.3449)" class="st15" width="1.3" height="198"/>
				
					<rect x="91.2" y="108.4" transform="matrix(0.7071 -0.7071 0.7071 0.7071 -119.7499 125.6549)" class="st16" width="1.3" height="198"/>
				
					<rect x="92.1" y="107.4" transform="matrix(0.7071 -0.7071 0.7071 0.7071 -118.7984 126.065)" class="st17" width="1.3" height="198"/>
				
					<rect x="93.1" y="106.4" transform="matrix(0.7071 -0.7071 0.7071 0.7071 -117.7884 126.4165)" class="st18" width="1.3" height="198"/>
				
					<rect x="94" y="105.4" transform="matrix(0.7071 -0.7071 0.7071 0.7071 -116.8369 126.8265)" class="st19" width="1.3" height="198"/>
				
					<rect x="95" y="104.6" transform="matrix(0.7071 -0.7071 0.7071 0.7071 -115.9268 127.278)" class="st20" width="1.3" height="198"/>
				
					<rect x="95.9" y="103.6" transform="matrix(0.7071 -0.7071 0.7071 0.7071 -115.0168 127.588)" class="st21" width="1.3" height="198"/>
				
					<rect x="96.8" y="102.7" transform="matrix(0.7071 -0.7071 0.7071 0.7071 -114.0653 127.9981)" class="st22" width="1.3" height="198"/>
				
					<rect x="97.8" y="101.7" transform="matrix(0.7071 -0.7071 0.7071 0.7071 -113.126 128.3789)" class="st23" width="1.3" height="198"/>
				
					<rect x="98.7" y="100.8" transform="matrix(0.7071 -0.7071 0.7071 0.7071 -112.1745 128.7889)" class="st24" width="1.3" height="198"/>
				
					<rect x="99.7" y="99.9" transform="matrix(0.7071 -0.7071 0.7071 0.7071 -111.2644 129.2404)" class="st25" width="1.3" height="198"/>
				
					<rect x="100.6" y="99" transform="matrix(0.7071 -0.7071 0.7071 0.7071 -110.3544 129.5504)" class="st26" width="1.3" height="198"/>
				
					<rect x="101.5" y="97.9" transform="matrix(0.7071 -0.7071 0.7071 0.7071 -109.3322 129.9312)" class="st27" width="1.3" height="198"/>
				
					<rect x="102.5" y="97" transform="matrix(0.7071 -0.7071 0.7071 0.7071 -108.3929 130.312)" class="st28" width="1.3" height="198"/>
				
					<rect x="103.4" y="96.1" transform="matrix(0.7071 -0.7071 0.7071 0.7071 -107.4414 130.722)" class="st29" width="1.3" height="198"/>
				
					<rect x="104.4" y="95.2" transform="matrix(0.7071 -0.7071 0.7071 0.7071 -106.5314 131.1735)" class="st30" width="1.3" height="198"/>
				
					<rect x="105.3" y="94.2" transform="matrix(0.7071 -0.7071 0.7071 0.7071 -105.6213 131.4835)" class="st31" width="1.3" height="198"/>
				
					<rect x="106.2" y="93.3" transform="matrix(0.7071 -0.7071 0.7071 0.7071 -104.6698 131.8936)" class="st32" width="1.3" height="198"/>
				
					<rect x="107.2" y="92.4" transform="matrix(0.7071 -0.7071 0.7071 0.7071 -103.7305 132.2743)" class="st33" width="1.3" height="198"/>
				
					<rect x="108.1" y="91.4" transform="matrix(0.7071 -0.7071 0.7071 0.7071 -102.779 132.6844)" class="st34" width="1.3" height="198"/>
				
					<rect x="109.1" y="90.5" transform="matrix(0.7071 -0.7071 0.7071 0.7071 -101.8397 133.0651)" class="st35" width="1.3" height="198"/>
				
					<rect x="110" y="89.6" transform="matrix(0.7071 -0.7071 0.7071 0.7071 -100.9589 133.4459)" class="st36" width="1.3" height="198"/>
				
					<rect x="110.9" y="88.5" transform="matrix(0.7071 -0.7071 0.7071 0.7071 -99.9367 133.8267)" class="st37" width="1.3" height="198"/>
				
					<rect x="111.9" y="87.6" transform="matrix(0.7071 -0.7071 0.7071 0.7071 -98.9974 134.2074)" class="st38" width="1.3" height="198"/>
				
					<rect x="112.8" y="86.7" transform="matrix(0.7071 -0.7071 0.7071 0.7071 -98.0459 134.6175)" class="st39" width="1.3" height="198"/>
				
					<rect x="113.8" y="85.7" transform="matrix(0.7071 -0.7071 0.7071 0.7071 -97.1066 134.9982)" class="st40" width="1.3" height="198"/>
				
					<rect x="114.7" y="84.8" transform="matrix(0.7071 -0.7071 0.7071 0.7071 -96.2258 135.379)" class="st41" width="1.3" height="198"/>
				
					<rect x="115.6" y="83.9" transform="matrix(0.7071 -0.7071 0.7071 0.7071 -95.2743 135.789)" class="st42" width="1.3" height="198"/>
				
					<rect x="116.6" y="83" transform="matrix(0.7071 -0.7071 0.7071 0.7071 -94.335 136.1698)" class="st43" width="1.3" height="198"/>
				
					<rect x="117.5" y="82" transform="matrix(0.7071 -0.7071 0.7071 0.7071 -93.3835 136.5799)" class="st44" width="1.3" height="198"/>
				
					<rect x="118.5" y="81.1" transform="matrix(0.7071 -0.7071 0.7071 0.7071 -92.4442 136.9606)" class="st45" width="1.3" height="198"/>
				
					<rect x="119.4" y="80.1" transform="matrix(0.7071 -0.7071 0.7071 0.7071 -91.4927 137.3121)" class="st46" width="1.3" height="198"/>
				
					<rect x="120.3" y="79.2" transform="matrix(0.7071 -0.7071 0.7071 0.7071 -90.5413 137.7222)" class="st47" width="1.3" height="198"/>
				
					<rect x="121.3" y="78.2" transform="matrix(0.7071 -0.7071 0.7071 0.7071 -89.6019 138.1029)" class="st48" width="1.3" height="198"/>
				
					<rect x="122.2" y="77.3" transform="matrix(0.7071 -0.7071 0.7071 0.7071 -88.6504 138.513)" class="st49" width="1.3" height="198"/>
				
					<rect x="123.2" y="76.3" transform="matrix(0.7071 -0.7071 0.7071 0.7071 -87.7111 138.8937)" class="st50" width="1.3" height="198"/>
				
					<rect x="124.1" y="75.5" transform="matrix(0.7071 -0.7071 0.7071 0.7071 -86.8303 139.2745)" class="st51" width="1.3" height="198"/>
				
					<rect x="125" y="74.5" transform="matrix(0.7071 -0.7071 0.7071 0.7071 -85.8789 139.6845)" class="st52" width="1.3" height="198"/>
				
					<rect x="126" y="73.6" transform="matrix(0.7071 -0.7071 0.7071 0.7071 -84.9395 140.0653)" class="st53" width="1.3" height="198"/>
				
					<rect x="126.9" y="72.6" transform="matrix(0.7071 -0.7071 0.7071 0.7071 -83.9881 140.4753)" class="st54" width="1.3" height="198"/>
				
					<rect x="127.9" y="71.7" transform="matrix(0.7071 -0.7071 0.7071 0.7071 -83.0487 140.8561)" class="st55" width="1.3" height="198"/>
				
					<rect x="128.8" y="70.7" transform="matrix(0.7071 -0.7071 0.7071 0.7071 -82.0972 141.2076)" class="st56" width="1.3" height="198"/>
				
					<rect x="129.7" y="69.8" transform="matrix(0.7071 -0.7071 0.7071 0.7071 -81.1458 141.6176)" class="st57" width="1.3" height="198"/>
				
					<rect x="130.7" y="68.8" transform="matrix(0.7071 -0.7071 0.7071 0.7071 -80.2064 141.9984)" class="st58" width="1.3" height="198"/>
				
					<rect x="131.6" y="67.9" transform="matrix(0.7071 -0.7071 0.7071 0.7071 -79.255 142.4084)" class="st59" width="1.3" height="198"/>
				
					<rect x="132.6" y="66.9" transform="matrix(0.7071 -0.7071 0.7071 0.7071 -78.3156 142.7892)" class="st60" width="1.3" height="198"/>
				
					<rect x="133.5" y="66" transform="matrix(0.7071 -0.7071 0.7071 0.7071 -77.3641 143.1992)" class="st61" width="1.3" height="198"/>
				
					<rect x="134.4" y="65.1" transform="matrix(0.7071 -0.7071 0.7071 0.7071 -76.4834 143.58)" class="st62" width="1.3" height="198"/>
				
					<rect x="135.4" y="64.2" transform="matrix(0.7071 -0.7071 0.7071 0.7071 -75.544 143.9608)" class="st63" width="1.3" height="198"/>
				
					<rect x="136.3" y="63.2" transform="matrix(0.7071 -0.7071 0.7071 0.7071 -74.5926 144.3708)" class="st64" width="1.3" height="198"/>
				
					<rect x="137.3" y="62.2" transform="matrix(0.7071 -0.7071 0.7071 0.7071 -73.5825 144.7223)" class="st65" width="1.3" height="198"/>
				
					<rect x="138.2" y="61.2" transform="matrix(0.7071 -0.7071 0.7071 0.7071 -72.6311 145.1324)" class="st66" width="1.3" height="198"/>
				
					<rect x="139.2" y="60.4" transform="matrix(0.7071 -0.7071 0.7071 0.7071 -71.721 145.5838)" class="st67" width="1.3" height="198"/>
				
					<rect x="140.1" y="59.4" transform="matrix(0.7071 -0.7071 0.7071 0.7071 -70.811 145.8939)" class="st68" width="1.3" height="198"/>
				
					<rect x="141" y="58.5" transform="matrix(0.7071 -0.7071 0.7071 0.7071 -69.8595 146.3039)" class="st69" width="1.3" height="198"/>
				
					<rect x="142" y="57.5" transform="matrix(0.7071 -0.7071 0.7071 0.7071 -68.9201 146.6847)" class="st70" width="1.3" height="198"/>
				
					<rect x="142.9" y="56.6" transform="matrix(0.7071 -0.7071 0.7071 0.7071 -67.9687 147.0947)" class="st71" width="1.3" height="198"/>
				
					<rect x="143.9" y="55.7" transform="matrix(0.7071 -0.7071 0.7071 0.7071 -67.0586 147.5462)" class="st72" width="1.3" height="198"/>
				
					<rect x="144.8" y="54.8" transform="matrix(0.7071 -0.7071 0.7071 0.7071 -66.1486 147.8563)" class="st73" width="1.3" height="198"/>
				
					<rect x="145.7" y="53.8" transform="matrix(0.7071 -0.7071 0.7071 0.7071 -65.1971 148.2663)" class="st74" width="1.3" height="198"/>
				
					<rect x="146.7" y="52.8" transform="matrix(0.7071 -0.7071 0.7071 0.7071 -64.187 148.6178)" class="st75" width="1.3" height="198"/>
				
					<rect x="147.6" y="51.8" transform="matrix(0.7071 -0.7071 0.7071 0.7071 -63.2356 149.0278)" class="st76" width="1.3" height="198"/>
				
					<rect x="148.6" y="51" transform="matrix(0.7071 -0.7071 0.7071 0.7071 -62.3255 149.4793)" class="st77" width="1.3" height="198"/>
				
					<rect x="149.5" y="50" transform="matrix(0.7071 -0.7071 0.7071 0.7071 -61.4155 149.7894)" class="st78" width="1.3" height="198"/>
				
					<rect x="150.4" y="49.1" transform="matrix(0.7071 -0.7071 0.7071 0.7071 -60.464 150.1994)" class="st79" width="1.3" height="198"/>
				
					<rect x="151.4" y="48.1" transform="matrix(0.7071 -0.7071 0.7071 0.7071 -59.5247 150.5802)" class="st80" width="1.3" height="198"/>
				
					<rect x="152.3" y="47.2" transform="matrix(0.7071 -0.7071 0.7071 0.7071 -58.5732 150.9902)" class="st81" width="1.3" height="198"/>
				
					<rect x="153.3" y="46.3" transform="matrix(0.7071 -0.7071 0.7071 0.7071 -57.6631 151.4417)" class="st82" width="1.3" height="198"/>
				
					<rect x="154.2" y="45.4" transform="matrix(0.7071 -0.7071 0.7071 0.7071 -56.7531 151.7517)" class="st83" width="1.3" height="198"/>
				
					<rect x="155.1" y="44.3" transform="matrix(0.7071 -0.7071 0.7071 0.7071 -55.7309 152.1325)" class="st84" width="1.3" height="198"/>
				
					<rect x="156.1" y="43.4" transform="matrix(0.7071 -0.7071 0.7071 0.7071 -54.7916 152.5132)" class="st85" width="1.3" height="198"/>
				
					<rect x="157" y="42.5" transform="matrix(0.7071 -0.7071 0.7071 0.7071 -53.8401 152.9233)" class="st86" width="1.3" height="198"/>
				
					<rect x="158" y="41.5" transform="matrix(0.7071 -0.7071 0.7071 0.7071 -52.9007 153.3041)" class="st87" width="1.3" height="198"/>
				
					<rect x="158.9" y="40.6" transform="matrix(0.7071 -0.7071 0.7071 0.7071 -52.02 153.6848)" class="st88" width="1.3" height="198"/>
				
					<rect x="159.8" y="39.7" transform="matrix(0.7071 -0.7071 0.7071 0.7071 -51.0685 154.0949)" class="st89" width="1.3" height="198"/>
				
					<rect x="160.8" y="38.7" transform="matrix(0.7071 -0.7071 0.7071 0.7071 -50.1292 154.4756)" class="st90" width="1.3" height="198"/>
				
					<rect x="161.7" y="37.8" transform="matrix(0.7071 -0.7071 0.7071 0.7071 -49.1777 154.8857)" class="st91" width="1.3" height="198"/>
				
					<rect x="162.7" y="36.9" transform="matrix(0.7071 -0.7071 0.7071 0.7071 -48.2384 155.2664)" class="st92" width="1.3" height="198"/>
				
					<rect x="163.6" y="36" transform="matrix(0.7071 -0.7071 0.7071 0.7071 -47.3576 155.6472)" class="st93" width="1.3" height="198"/>
				
					<rect x="164.5" y="34.9" transform="matrix(0.7071 -0.7071 0.7071 0.7071 -46.3354 156.028)" class="st94" width="1.3" height="198"/>
				
					<rect x="165.5" y="34" transform="matrix(0.7071 -0.7071 0.7071 0.7071 -45.3961 156.4087)" class="st95" width="1.3" height="198"/>
				
					<rect x="166.4" y="33.1" transform="matrix(0.7071 -0.7071 0.7071 0.7071 -44.4446 156.8188)" class="st96" width="1.3" height="198"/>
				
					<rect x="167.4" y="32.1" transform="matrix(0.7071 -0.7071 0.7071 0.7071 -43.5053 157.1995)" class="st97" width="1.3" height="198"/>
				
					<rect x="168.3" y="31.2" transform="matrix(0.7071 -0.7071 0.7071 0.7071 -42.6245 157.5803)" class="st98" width="1.3" height="198"/>
				
					<rect x="169.2" y="30.3" transform="matrix(0.7071 -0.7071 0.7071 0.7071 -41.673 157.9904)" class="st99" width="1.3" height="198"/>
				
					<rect x="170.2" y="29.4" transform="matrix(0.7071 -0.7071 0.7071 0.7071 -40.7337 158.3711)" class="st100" width="1.3" height="198"/>
				
					<rect x="171.1" y="28.4" transform="matrix(0.7071 -0.7071 0.7071 0.7071 -39.7822 158.7812)" class="st101" width="1.3" height="198"/>
				
					<rect x="172.1" y="27.5" transform="matrix(0.7071 -0.7071 0.7071 0.7071 -38.8429 159.1619)" class="st102" width="1.3" height="198"/>
				
					<rect x="173" y="26.5" transform="matrix(0.7071 -0.7071 0.7071 0.7071 -37.8914 159.5134)" class="st103" width="1.3" height="198"/>
				
					<rect x="173.9" y="25.6" transform="matrix(0.7071 -0.7071 0.7071 0.7071 -36.9399 159.9235)" class="st104" width="1.3" height="198"/>
				
					<rect x="174.9" y="24.6" transform="matrix(0.7071 -0.7071 0.7071 0.7071 -36.0006 160.3042)" class="st105" width="1.3" height="198"/>
				
					<rect x="175.8" y="23.7" transform="matrix(0.7071 -0.7071 0.7071 0.7071 -35.0491 160.7143)" class="st106" width="1.3" height="198"/>
				
					<rect x="176.8" y="22.7" transform="matrix(0.7071 -0.7071 0.7071 0.7071 -34.1098 161.095)" class="st106" width="1.3" height="198"/>
				
					<rect x="177.7" y="21.8" transform="matrix(0.7071 -0.7071 0.7071 0.7071 -33.229 161.4758)" class="st107" width="1.3" height="198"/>
				
					<rect x="178.6" y="20.9" transform="matrix(0.7071 -0.7071 0.7071 0.7071 -32.2776 161.8858)" class="st108" width="1.3" height="198"/>
				
					<rect x="179.6" y="20" transform="matrix(0.7071 -0.7071 0.7071 0.7071 -31.3382 162.2666)" class="st109" width="1.3" height="198"/>
				
					<rect x="180.5" y="19" transform="matrix(0.7071 -0.7071 0.7071 0.7071 -30.3867 162.6767)" class="st110" width="1.3" height="198"/>
				
					<rect x="181.5" y="18.1" transform="matrix(0.7071 -0.7071 0.7071 0.7071 -29.4474 163.0574)" class="st110" width="1.3" height="198"/>
				
					<rect x="182.4" y="17" transform="matrix(0.7071 -0.7071 0.7071 0.7071 -28.4252 163.4382)" class="st111" width="1.3" height="198"/>
				
					<rect x="183.3" y="16.2" transform="matrix(0.7071 -0.7071 0.7071 0.7071 -27.5445 163.8189)" class="st112" width="1.3" height="198"/>
				
					<rect x="184.3" y="15.2" transform="matrix(0.7071 -0.7071 0.7071 0.7071 -26.6051 164.1997)" class="st113" width="1.3" height="198"/>
				
					<rect x="185.2" y="14.3" transform="matrix(0.7071 -0.7071 0.7071 0.7071 -25.6537 164.6098)" class="st114" width="1.3" height="198"/>
				
					<rect x="186.2" y="13.3" transform="matrix(0.7071 -0.7071 0.7071 0.7071 -24.7143 164.9905)" class="st115" width="1.3" height="198"/>
				
					<rect x="187.1" y="12.4" transform="matrix(0.7071 -0.7071 0.7071 0.7071 -23.7628 165.4006)" class="st116" width="1.3" height="198"/>
				
					<rect x="188.1" y="11.5" transform="matrix(0.7071 -0.7071 0.7071 0.7071 -22.8528 165.852)" class="st117" width="1.3" height="198"/>
				
					<rect x="189" y="10.6" transform="matrix(0.7071 -0.7071 0.7071 0.7071 -21.9427 166.1621)" class="st118" width="1.3" height="198"/>
				
					<rect x="189.9" y="9.6" transform="matrix(0.7071 -0.7071 0.7071 0.7071 -20.9913 166.5721)" class="st119" width="1.3" height="198"/>
				
					<rect x="190.9" y="8.7" transform="matrix(0.7071 -0.7071 0.7071 0.7071 -20.0519 166.9529)" class="st120" width="1.3" height="198"/>
				
					<rect x="191.8" y="7.6" transform="matrix(0.7071 -0.7071 0.7071 0.7071 -19.0297 167.3336)" class="st121" width="1.3" height="198"/>
				
					<rect x="192.8" y="6.8" transform="matrix(0.7071 -0.7071 0.7071 0.7071 -18.1197 167.7851)" class="st122" width="1.3" height="198"/>
				
					<rect x="193.7" y="5.8" transform="matrix(0.7071 -0.7071 0.7071 0.7071 -17.2096 168.0952)" class="st123" width="1.3" height="198"/>
				
					<rect x="194.6" y="4.9" transform="matrix(0.7071 -0.7071 0.7071 0.7071 -16.2582 168.5052)" class="st124" width="1.3" height="198"/>
				
					<rect x="195.6" y="3.9" transform="matrix(0.7071 -0.7071 0.7071 0.7071 -15.3188 168.886)" class="st125" width="1.3" height="198"/>
				
					<rect x="196.5" y="3" transform="matrix(0.7071 -0.7071 0.7071 0.7071 -14.3674 169.296)" class="st126" width="1.3" height="198"/>
				
					<rect x="197.5" y="2.1" transform="matrix(0.7071 -0.7071 0.7071 0.7071 -13.4573 169.7475)" class="st127" width="1.3" height="198"/>
				
					<rect x="198.4" y="1.2" transform="matrix(0.7071 -0.7071 0.7071 0.7071 -12.5473 170.0576)" class="st127" width="1.3" height="198"/>
				
					<rect x="199.3" y="0.2" transform="matrix(0.7071 -0.7071 0.7071 0.7071 -11.5958 170.4676)" class="st128" width="1.3" height="198"/>
				
					<rect x="200.3" y="-0.8" transform="matrix(0.7071 -0.7071 0.7071 0.7071 -10.5857 170.8191)" class="st129" width="1.3" height="198"/>
				
					<rect x="201.2" y="-1.8" transform="matrix(0.7071 -0.7071 0.7071 0.7071 -9.6343 171.2291)" class="st129" width="1.3" height="198"/>
				
					<rect x="202.2" y="-2.6" transform="matrix(0.7071 -0.7071 0.7071 0.7071 -8.7242 171.6806)" class="st130" width="1.3" height="198"/>
				
					<rect x="203.1" y="-3.6" transform="matrix(0.7071 -0.7071 0.7071 0.7071 -7.8142 171.9906)" class="st131" width="1.3" height="198"/>
				
					<rect x="204" y="-4.5" transform="matrix(0.7071 -0.7071 0.7071 0.7071 -6.8627 172.4007)" class="st131" width="1.3" height="198"/>
				
					<rect x="205" y="-5.5" transform="matrix(0.7071 -0.7071 0.7071 0.7071 -5.9234 172.7815)" class="st132" width="1.3" height="198"/>
				
					<rect x="205.9" y="-6.4" transform="matrix(0.7071 -0.7071 0.7071 0.7071 -4.9719 173.1915)" class="st133" width="1.3" height="198"/>
				
					<rect x="206.9" y="-7.3" transform="matrix(0.7071 -0.7071 0.7071 0.7071 -4.0325 173.5723)" class="st133" width="1.3" height="198"/>
				
					<rect x="207.8" y="-8.2" transform="matrix(0.7071 -0.7071 0.7071 0.7071 -3.1518 173.953)" class="st134" width="1.3" height="198"/>
				
					<rect x="208.7" y="-9.2" transform="matrix(0.7071 -0.7071 0.7071 0.7071 -2.2003 174.3631)" class="st135" width="1.3" height="198"/>
				
					<rect x="209.7" y="-10.2" transform="matrix(0.7071 -0.7071 0.7071 0.7071 -1.1903 174.7146)" class="st136" width="1.3" height="198"/>
				
					<rect x="210.6" y="-11.1" transform="matrix(0.7071 -0.7071 0.7071 0.7071 -0.2388 175.1246)" class="st136" width="1.3" height="198"/>
				
					<rect x="211.6" y="-12.1" transform="matrix(0.7071 -0.7071 0.7071 0.7071 0.7006 175.5054)" class="st137" width="1.3" height="198"/>
				
					<rect x="212.5" y="-13" transform="matrix(0.7071 -0.7071 0.7071 0.7071 1.5813 175.8861)" class="st138" width="1.3" height="198"/>
				
					<rect x="213.4" y="-13.9" transform="matrix(0.7071 -0.7071 0.7071 0.7071 2.5328 176.2962)" class="st139" width="1.3" height="198"/>
				
					<rect x="214.4" y="-14.9" transform="matrix(0.7071 -0.7071 0.7071 0.7071 3.4721 176.6769)" class="st139" width="1.3" height="198"/>
				
					<rect x="215.3" y="-15.8" transform="matrix(0.7071 -0.7071 0.7071 0.7071 4.4236 177.087)" class="st139" width="1.3" height="198"/>
				
					<rect x="216.3" y="-16.7" transform="matrix(0.7071 -0.7071 0.7071 0.7071 5.3629 177.4678)" class="st140" width="1.3" height="198"/>
				
					<rect x="217.2" y="-17.6" transform="matrix(0.7071 -0.7071 0.7071 0.7071 6.2437 177.8485)" class="st141" width="1.3" height="198"/>
				
					<rect x="218.1" y="-18.7" transform="matrix(0.7071 -0.7071 0.7071 0.7071 7.2659 178.2293)" class="st142" width="1.3" height="198"/>
				
					<rect x="219.1" y="-19.6" transform="matrix(0.7071 -0.7071 0.7071 0.7071 8.2052 178.61)" class="st142" width="1.3" height="198"/>
				
					<rect x="220" y="-20.5" transform="matrix(0.7071 -0.7071 0.7071 0.7071 9.1567 179.0201)" class="st142" width="1.3" height="198"/>
				
					<rect x="221" y="-21.5" transform="matrix(0.7071 -0.7071 0.7071 0.7071 10.096 179.4008)" class="st143" width="1.3" height="198"/>
				
					<rect x="221.9" y="-22.4" transform="matrix(0.7071 -0.7071 0.7071 0.7071 10.9768 179.7816)" class="st143" width="1.3" height="198"/>
				
					<rect x="222.8" y="-23.3" transform="matrix(0.7071 -0.7071 0.7071 0.7071 11.9283 180.1917)" class="st143" width="1.3" height="198"/>
				
					<rect x="223.8" y="-24.2" transform="matrix(0.7071 -0.7071 0.7071 0.7071 12.8676 180.5724)" class="st143" width="1.3" height="198"/>
				
					<rect x="224.7" y="-25.2" transform="matrix(0.7071 -0.7071 0.7071 0.7071 13.8191 180.9825)" class="st144" width="1.3" height="198"/>
				
					<rect x="225.7" y="-26.1" transform="matrix(0.7071 -0.7071 0.7071 0.7071 14.7584 181.3632)" class="st144" width="1.3" height="198"/>
				
					<rect x="226.6" y="-27" transform="matrix(0.7071 -0.7071 0.7071 0.7071 15.6392 181.744)" class="st144" width="1.3" height="198"/>
				
					<rect x="227.5" y="-28" transform="matrix(0.7071 -0.7071 0.7071 0.7071 16.6614 182.1248)" class="st144" width="1.3" height="198"/>
				
					<rect x="228.5" y="-29" transform="matrix(0.7071 -0.7071 0.7071 0.7071 17.6007 182.5055)" class="st144" width="1.3" height="198"/>
				
					<rect x="229.4" y="-29.9" transform="matrix(0.7071 -0.7071 0.7071 0.7071 18.5522 182.9156)" class="st144" width="1.3" height="198"/>
				
					<rect x="230.4" y="-30.9" transform="matrix(0.7071 -0.7071 0.7071 0.7071 19.4915 183.2963)" class="st144" width="1.3" height="198"/>
				
					<rect x="231.3" y="-31.8" transform="matrix(0.7071 -0.7071 0.7071 0.7071 20.443 183.7064)" class="st144" width="1.3" height="198"/>
				
					<rect x="232.2" y="-32.7" transform="matrix(0.7071 -0.7071 0.7071 0.7071 21.3237 184.0871)" class="st144" width="1.3" height="198"/>
				
					<rect x="233.2" y="-33.6" transform="matrix(0.7071 -0.7071 0.7071 0.7071 22.2631 184.4679)" class="st145" width="1.3" height="198"/>
				
					<rect x="234.1" y="-34.6" transform="matrix(0.7071 -0.7071 0.7071 0.7071 23.2146 184.878)" class="st145" width="1.3" height="198"/>
				
					<rect x="235.1" y="-35.5" transform="matrix(0.7071 -0.7071 0.7071 0.7071 24.1539 185.2587)" class="st145" width="1.3" height="198"/>
				
					<rect x="236" y="-36.6" transform="matrix(0.7071 -0.7071 0.7071 0.7071 25.1761 185.6395)" class="st145" width="1.3" height="198"/>
				
					<rect x="237" y="-37.4" transform="matrix(0.7071 -0.7071 0.7071 0.7071 26.0861 186.091)" class="st145" width="1.3" height="198"/>
				<rect x="238" y="-37.9" class="st145" width="0" height="198"/>
				<rect x="238.1" y="-38" class="st132" width="0" height="198"/>
				<rect x="238.1" y="-38" class="st128" width="0" height="198"/>
				<rect x="238.1" y="-38" class="st127" width="0" height="198"/>
				<rect x="238.1" y="-38" class="st146" width="0" height="198"/>
				<rect x="238.2" y="-38" class="st146" width="0" height="198"/>
				<rect x="238.2" y="-38.1" class="st146" width="0" height="198"/>
				<path class="st146" d="M308.2,130.9l-140-140L308.2,130.9z"/>
			</g>
		</g>
		<g>
			<defs>
				<polygon id="SVGID_5_" points="327.3,188.2 187.3,328.2 149.1,328.2 289.1,188.2 168.2,67.3 187.3,48.2 				"/>
			</defs>
			<clipPath id="SVGID_6_">
				<use xlink:href="#SVGID_5_"  style="overflow:visible;"/>
			</clipPath>
			<g class="st147">
				<path class="st3" d="M327.3,188.2l-140-140L327.3,188.2z"/>
				
					<rect x="256.2" y="19.7" transform="matrix(0.7071 -0.7071 0.7071 0.7071 -8.6796 216.4162)" class="st3" width="1.3" height="198"/>
				
					<rect x="255.3" y="20.6" transform="matrix(0.7071 -0.7071 0.7071 0.7071 -9.6311 216.0062)" class="st4" width="1.3" height="198"/>
				
					<rect x="254.3" y="21.5" transform="matrix(0.7071 -0.7071 0.7071 0.7071 -10.5412 215.5547)" class="st5" width="1.3" height="198"/>
				
					<rect x="253.4" y="22.5" transform="matrix(0.7071 -0.7071 0.7071 0.7071 -11.5219 215.2154)" class="st6" width="1.3" height="198"/>
				
					<rect x="252.5" y="23.4" transform="matrix(0.7071 -0.7071 0.7071 0.7071 -12.4027 214.8346)" class="st7" width="1.3" height="198"/>
				
					<rect x="251.5" y="24.3" transform="matrix(0.7071 -0.7071 0.7071 0.7071 -13.342 214.4538)" class="st8" width="1.3" height="198"/>
				
					<rect x="250.6" y="25.3" transform="matrix(0.7071 -0.7071 0.7071 0.7071 -14.2935 214.0438)" class="st9" width="1.3" height="198"/>
				
					<rect x="249.6" y="26.2" transform="matrix(0.7071 -0.7071 0.7071 0.7071 -15.2743 213.6216)" class="st10" width="1.3" height="198"/>
				
					<rect x="248.7" y="27.3" transform="matrix(0.7071 -0.7071 0.7071 0.7071 -16.255 213.2823)" class="st11" width="1.3" height="198"/>
				
					<rect x="247.8" y="28.1" transform="matrix(0.7071 -0.7071 0.7071 0.7071 -17.1358 212.9015)" class="st12" width="1.3" height="198"/>
				
					<rect x="246.8" y="29.1" transform="matrix(0.7071 -0.7071 0.7071 0.7071 -18.0751 212.5208)" class="st13" width="1.3" height="198"/>
				
					<rect x="245.9" y="30" transform="matrix(0.7071 -0.7071 0.7071 0.7071 -19.0266 212.1107)" class="st14" width="1.3" height="198"/>
				
					<rect x="244.9" y="30.9" transform="matrix(0.7071 -0.7071 0.7071 0.7071 -19.9366 211.6592)" class="st15" width="1.3" height="198"/>
				
					<rect x="244" y="31.9" transform="matrix(0.7071 -0.7071 0.7071 0.7071 -20.9174 211.3199)" class="st16" width="1.3" height="198"/>
				
					<rect x="243.1" y="32.8" transform="matrix(0.7071 -0.7071 0.7071 0.7071 -21.7982 210.9391)" class="st17" width="1.3" height="198"/>
				
					<rect x="242.1" y="33.7" transform="matrix(0.7071 -0.7071 0.7071 0.7071 -22.7375 210.5584)" class="st18" width="1.3" height="198"/>
				
					<rect x="241.2" y="34.8" transform="matrix(0.7071 -0.7071 0.7071 0.7071 -23.7597 210.1776)" class="st19" width="1.3" height="198"/>
				
					<rect x="240.2" y="35.6" transform="matrix(0.7071 -0.7071 0.7071 0.7071 -24.6697 209.7261)" class="st20" width="1.3" height="198"/>
				
					<rect x="239.3" y="36.7" transform="matrix(0.7071 -0.7071 0.7071 0.7071 -25.6505 209.3868)" class="st21" width="1.3" height="198"/>
				
					<rect x="238.3" y="37.5" transform="matrix(0.7071 -0.7071 0.7071 0.7071 -26.5606 208.9353)" class="st22" width="1.3" height="198"/>
				
					<rect x="237.4" y="38.5" transform="matrix(0.7071 -0.7071 0.7071 0.7071 -27.4706 208.6253)" class="st23" width="1.3" height="198"/>
				
					<rect x="236.5" y="39.4" transform="matrix(0.7071 -0.7071 0.7071 0.7071 -28.4221 208.2152)" class="st24" width="1.3" height="198"/>
				
					<rect x="235.5" y="40.3" transform="matrix(0.7071 -0.7071 0.7071 0.7071 -29.3321 207.7637)" class="st25" width="1.3" height="198"/>
				
					<rect x="234.6" y="41.3" transform="matrix(0.7071 -0.7071 0.7071 0.7071 -30.3129 207.4244)" class="st26" width="1.3" height="198"/>
				
					<rect x="233.6" y="42.2" transform="matrix(0.7071 -0.7071 0.7071 0.7071 -31.2229 206.9729)" class="st27" width="1.3" height="198"/>
				
					<rect x="232.7" y="43.2" transform="matrix(0.7071 -0.7071 0.7071 0.7071 -32.2037 206.6336)" class="st28" width="1.3" height="198"/>
				
					<rect x="231.8" y="44.2" transform="matrix(0.7071 -0.7071 0.7071 0.7071 -33.1552 206.2821)" class="st29" width="1.3" height="198"/>
				
					<rect x="230.8" y="45" transform="matrix(0.7071 -0.7071 0.7071 0.7071 -34.0652 205.8306)" class="st30" width="1.3" height="198"/>
				
					<rect x="229.9" y="46" transform="matrix(0.7071 -0.7071 0.7071 0.7071 -35.046 205.4913)" class="st31" width="1.3" height="198"/>
				
					<rect x="228.9" y="46.9" transform="matrix(0.7071 -0.7071 0.7071 0.7071 -35.956 205.0398)" class="st32" width="1.3" height="198"/>
				
					<rect x="228" y="47.9" transform="matrix(0.7071 -0.7071 0.7071 0.7071 -36.9368 204.7005)" class="st33" width="1.3" height="198"/>
				
					<rect x="227.1" y="48.8" transform="matrix(0.7071 -0.7071 0.7071 0.7071 -37.8176 204.3197)" class="st34" width="1.3" height="198"/>
				
					<rect x="226.1" y="49.7" transform="matrix(0.7071 -0.7071 0.7071 0.7071 -38.7276 203.8683)" class="st35" width="1.3" height="198"/>
				
					<rect x="225.2" y="50.7" transform="matrix(0.7071 -0.7071 0.7071 0.7071 -39.7084 203.5289)" class="st36" width="1.3" height="198"/>
				
					<rect x="224.2" y="51.6" transform="matrix(0.7071 -0.7071 0.7071 0.7071 -40.6184 203.0775)" class="st37" width="1.3" height="198"/>
				
					<rect x="223.3" y="52.7" transform="matrix(0.7071 -0.7071 0.7071 0.7071 -41.6699 202.7674)" class="st38" width="1.3" height="198"/>
				
					<rect x="222.4" y="53.6" transform="matrix(0.7071 -0.7071 0.7071 0.7071 -42.5507 202.3866)" class="st39" width="1.3" height="198"/>
				
					<rect x="221.4" y="54.5" transform="matrix(0.7071 -0.7071 0.7071 0.7071 -43.49 202.0059)" class="st40" width="1.3" height="198"/>
				
					<rect x="220.5" y="55.4" transform="matrix(0.7071 -0.7071 0.7071 0.7071 -44.4415 201.5958)" class="st41" width="1.3" height="198"/>
				
					<rect x="219.5" y="56.3" transform="matrix(0.7071 -0.7071 0.7071 0.7071 -45.3515 201.1443)" class="st42" width="1.3" height="198"/>
				
					<rect x="218.6" y="57.3" transform="matrix(0.7071 -0.7071 0.7071 0.7071 -46.3323 200.805)" class="st43" width="1.3" height="198"/>
				
					<rect x="217.7" y="58.2" transform="matrix(0.7071 -0.7071 0.7071 0.7071 -47.213 200.4243)" class="st44" width="1.3" height="198"/>
				
					<rect x="216.7" y="59.1" transform="matrix(0.7071 -0.7071 0.7071 0.7071 -48.1524 200.0435)" class="st45" width="1.3" height="198"/>
				
					<rect x="215.8" y="60.1" transform="matrix(0.7071 -0.7071 0.7071 0.7071 -49.1038 199.6335)" class="st46" width="1.3" height="198"/>
				
					<rect x="214.8" y="61" transform="matrix(0.7071 -0.7071 0.7071 0.7071 -50.0139 199.182)" class="st47" width="1.3" height="198"/>
				
					<rect x="213.9" y="62.1" transform="matrix(0.7071 -0.7071 0.7071 0.7071 -51.0654 198.8719)" class="st48" width="1.3" height="198"/>
				
					<rect x="213" y="63" transform="matrix(0.7071 -0.7071 0.7071 0.7071 -51.9461 198.4911)" class="st49" width="1.3" height="198"/>
				
					<rect x="212" y="63.9" transform="matrix(0.7071 -0.7071 0.7071 0.7071 -52.8855 198.1104)" class="st50" width="1.3" height="198"/>
				
					<rect x="211.1" y="64.8" transform="matrix(0.7071 -0.7071 0.7071 0.7071 -53.8369 197.7003)" class="st51" width="1.3" height="198"/>
				
					<rect x="210.1" y="65.7" transform="matrix(0.7071 -0.7071 0.7071 0.7071 -54.747 197.2489)" class="st52" width="1.3" height="198"/>
				
					<rect x="209.2" y="66.7" transform="matrix(0.7071 -0.7071 0.7071 0.7071 -55.7278 196.9095)" class="st53" width="1.3" height="198"/>
				
					<rect x="208.3" y="67.6" transform="matrix(0.7071 -0.7071 0.7071 0.7071 -56.6085 196.5288)" class="st54" width="1.3" height="198"/>
				
					<rect x="207.3" y="68.5" transform="matrix(0.7071 -0.7071 0.7071 0.7071 -57.5479 196.148)" class="st55" width="1.3" height="198"/>
				
					<rect x="206.4" y="69.5" transform="matrix(0.7071 -0.7071 0.7071 0.7071 -58.4993 195.738)" class="st56" width="1.3" height="198"/>
				
					<rect x="205.4" y="70.5" transform="matrix(0.7071 -0.7071 0.7071 0.7071 -59.4801 195.3158)" class="st57" width="1.3" height="198"/>
				
					<rect x="204.5" y="71.5" transform="matrix(0.7071 -0.7071 0.7071 0.7071 -60.4608 194.9764)" class="st58" width="1.3" height="198"/>
				
					<rect x="203.6" y="72.3" transform="matrix(0.7071 -0.7071 0.7071 0.7071 -61.3416 194.5957)" class="st59" width="1.3" height="198"/>
				
					<rect x="202.6" y="73.3" transform="matrix(0.7071 -0.7071 0.7071 0.7071 -62.2809 194.2149)" class="st60" width="1.3" height="198"/>
				
					<rect x="201.7" y="74.2" transform="matrix(0.7071 -0.7071 0.7071 0.7071 -63.2324 193.8049)" class="st61" width="1.3" height="198"/>
				
					<rect x="200.7" y="75.1" transform="matrix(0.7071 -0.7071 0.7071 0.7071 -64.1425 193.3534)" class="st62" width="1.3" height="198"/>
				
					<rect x="199.8" y="76.1" transform="matrix(0.7071 -0.7071 0.7071 0.7071 -65.1232 193.0141)" class="st63" width="1.3" height="198"/>
				
					<rect x="198.9" y="77" transform="matrix(0.7071 -0.7071 0.7071 0.7071 -66.004 192.6333)" class="st64" width="1.3" height="198"/>
				
					<rect x="197.9" y="77.9" transform="matrix(0.7071 -0.7071 0.7071 0.7071 -66.9433 192.2525)" class="st65" width="1.3" height="198"/>
				
					<rect x="197" y="78.9" transform="matrix(0.7071 -0.7071 0.7071 0.7071 -67.8948 191.8425)" class="st66" width="1.3" height="198"/>
				
					<rect x="196" y="79.9" transform="matrix(0.7071 -0.7071 0.7071 0.7071 -68.8756 191.4203)" class="st67" width="1.3" height="198"/>
				
					<rect x="195.1" y="80.9" transform="matrix(0.7071 -0.7071 0.7071 0.7071 -69.8563 191.081)" class="st68" width="1.3" height="198"/>
				
					<rect x="194.2" y="81.7" transform="matrix(0.7071 -0.7071 0.7071 0.7071 -70.7371 190.7002)" class="st69" width="1.3" height="198"/>
				
					<rect x="193.2" y="82.7" transform="matrix(0.7071 -0.7071 0.7071 0.7071 -71.6764 190.3194)" class="st70" width="1.3" height="198"/>
				
					<rect x="192.3" y="83.6" transform="matrix(0.7071 -0.7071 0.7071 0.7071 -72.6279 189.9094)" class="st71" width="1.3" height="198"/>
				
					<rect x="191.3" y="84.5" transform="matrix(0.7071 -0.7071 0.7071 0.7071 -73.5379 189.4579)" class="st72" width="1.3" height="198"/>
				
					<rect x="190.4" y="85.5" transform="matrix(0.7071 -0.7071 0.7071 0.7071 -74.5187 189.1186)" class="st73" width="1.3" height="198"/>
				
					<rect x="189.4" y="86.4" transform="matrix(0.7071 -0.7071 0.7071 0.7071 -75.4288 188.6671)" class="st74" width="1.3" height="198"/>
				
					<rect x="188.5" y="87.3" transform="matrix(0.7071 -0.7071 0.7071 0.7071 -76.3388 188.3571)" class="st75" width="1.3" height="198"/>
				
					<rect x="187.6" y="88.3" transform="matrix(0.7071 -0.7071 0.7071 0.7071 -77.2903 187.947)" class="st76" width="1.3" height="198"/>
				
					<rect x="186.6" y="89.2" transform="matrix(0.7071 -0.7071 0.7071 0.7071 -78.271 187.5248)" class="st77" width="1.3" height="198"/>
				
					<rect x="185.7" y="90.3" transform="matrix(0.7071 -0.7071 0.7071 0.7071 -79.2518 187.1855)" class="st78" width="1.3" height="198"/>
				
					<rect x="184.7" y="91.1" transform="matrix(0.7071 -0.7071 0.7071 0.7071 -80.1618 186.734)" class="st79" width="1.3" height="198"/>
				
					<rect x="183.8" y="92.1" transform="matrix(0.7071 -0.7071 0.7071 0.7071 -81.1426 186.3947)" class="st80" width="1.3" height="198"/>
				
					<rect x="182.9" y="93" transform="matrix(0.7071 -0.7071 0.7071 0.7071 -82.0234 186.0139)" class="st81" width="1.3" height="198"/>
				
					<rect x="181.9" y="93.9" transform="matrix(0.7071 -0.7071 0.7071 0.7071 -82.9334 185.5624)" class="st82" width="1.3" height="198"/>
				
					<rect x="181" y="94.9" transform="matrix(0.7071 -0.7071 0.7071 0.7071 -83.9142 185.2231)" class="st83" width="1.3" height="198"/>
				
					<rect x="180" y="95.8" transform="matrix(0.7071 -0.7071 0.7071 0.7071 -84.8242 184.7716)" class="st84" width="1.3" height="198"/>
				
					<rect x="179.1" y="96.8" transform="matrix(0.7071 -0.7071 0.7071 0.7071 -85.805 184.4323)" class="st85" width="1.3" height="198"/>
				
					<rect x="178.2" y="97.8" transform="matrix(0.7071 -0.7071 0.7071 0.7071 -86.7565 184.0808)" class="st86" width="1.3" height="198"/>
				
					<rect x="177.2" y="98.6" transform="matrix(0.7071 -0.7071 0.7071 0.7071 -87.6665 183.6293)" class="st87" width="1.3" height="198"/>
				
					<rect x="176.3" y="99.7" transform="matrix(0.7071 -0.7071 0.7071 0.7071 -88.6473 183.29)" class="st88" width="1.3" height="198"/>
				
					<rect x="175.3" y="100.5" transform="matrix(0.7071 -0.7071 0.7071 0.7071 -89.5573 182.8385)" class="st89" width="1.3" height="198"/>
				
					<rect x="174.4" y="101.5" transform="matrix(0.7071 -0.7071 0.7071 0.7071 -90.5381 182.4992)" class="st90" width="1.3" height="198"/>
				
					<rect x="173.5" y="102.4" transform="matrix(0.7071 -0.7071 0.7071 0.7071 -91.4189 182.1184)" class="st91" width="1.3" height="198"/>
				
					<rect x="172.5" y="103.4" transform="matrix(0.7071 -0.7071 0.7071 0.7071 -92.3582 181.7377)" class="st92" width="1.3" height="198"/>
				
					<rect x="171.6" y="104.3" transform="matrix(0.7071 -0.7071 0.7071 0.7071 -93.3097 181.3276)" class="st93" width="1.3" height="198"/>
				
					<rect x="170.6" y="105.2" transform="matrix(0.7071 -0.7071 0.7071 0.7071 -94.2197 180.8761)" class="st94" width="1.3" height="198"/>
				
					<rect x="169.7" y="106.2" transform="matrix(0.7071 -0.7071 0.7071 0.7071 -95.2005 180.5368)" class="st95" width="1.3" height="198"/>
				
					<rect x="168.8" y="107.2" transform="matrix(0.7071 -0.7071 0.7071 0.7071 -96.1519 180.1853)" class="st96" width="1.3" height="198"/>
				
					<rect x="167.8" y="108.1" transform="matrix(0.7071 -0.7071 0.7071 0.7071 -97.0913 179.8046)" class="st97" width="1.3" height="198"/>
				
					<rect x="166.9" y="109" transform="matrix(0.7071 -0.7071 0.7071 0.7071 -98.0428 179.3945)" class="st98" width="1.3" height="198"/>
				
					<rect x="165.9" y="109.9" transform="matrix(0.7071 -0.7071 0.7071 0.7071 -98.9528 178.9431)" class="st99" width="1.3" height="198"/>
				
					<rect x="165" y="110.9" transform="matrix(0.7071 -0.7071 0.7071 0.7071 -99.9336 178.6037)" class="st100" width="1.3" height="198"/>
				
					<rect x="164.1" y="111.8" transform="matrix(0.7071 -0.7071 0.7071 0.7071 -100.8143 178.2229)" class="st101" width="1.3" height="198"/>
				
					<rect x="163.1" y="112.7" transform="matrix(0.7071 -0.7071 0.7071 0.7071 -101.7537 177.8422)" class="st102" width="1.3" height="198"/>
				
					<rect x="162.2" y="113.7" transform="matrix(0.7071 -0.7071 0.7071 0.7071 -102.7052 177.4321)" class="st103" width="1.3" height="198"/>
				
					<rect x="161.2" y="114.6" transform="matrix(0.7071 -0.7071 0.7071 0.7071 -103.6152 176.9807)" class="st104" width="1.3" height="198"/>
				
					<rect x="160.3" y="115.7" transform="matrix(0.7071 -0.7071 0.7071 0.7071 -104.6667 176.6706)" class="st105" width="1.3" height="198"/>
				
					<rect x="159.4" y="116.6" transform="matrix(0.7071 -0.7071 0.7071 0.7071 -105.5474 176.2899)" class="st106" width="1.3" height="198"/>
				
					<rect x="158.4" y="117.5" transform="matrix(0.7071 -0.7071 0.7071 0.7071 -106.4868 175.9091)" class="st106" width="1.3" height="198"/>
				
					<rect x="157.5" y="118.4" transform="matrix(0.7071 -0.7071 0.7071 0.7071 -107.4382 175.499)" class="st107" width="1.3" height="198"/>
				
					<rect x="156.5" y="119.3" transform="matrix(0.7071 -0.7071 0.7071 0.7071 -108.3483 175.0476)" class="st108" width="1.3" height="198"/>
				
					<rect x="155.6" y="120.3" transform="matrix(0.7071 -0.7071 0.7071 0.7071 -109.3291 174.7082)" class="st109" width="1.3" height="198"/>
				
					<rect x="154.7" y="121.2" transform="matrix(0.7071 -0.7071 0.7071 0.7071 -110.2098 174.3275)" class="st110" width="1.3" height="198"/>
				
					<rect x="153.7" y="122.1" transform="matrix(0.7071 -0.7071 0.7071 0.7071 -111.1492 173.9467)" class="st110" width="1.3" height="198"/>
				
					<rect x="152.8" y="123.1" transform="matrix(0.7071 -0.7071 0.7071 0.7071 -112.1006 173.5367)" class="st111" width="1.3" height="198"/>
				
					<rect x="151.8" y="124" transform="matrix(0.7071 -0.7071 0.7071 0.7071 -113.0107 173.0852)" class="st112" width="1.3" height="198"/>
				
					<rect x="150.9" y="125.1" transform="matrix(0.7071 -0.7071 0.7071 0.7071 -114.0622 172.7751)" class="st113" width="1.3" height="198"/>
				
					<rect x="150" y="125.9" transform="matrix(0.7071 -0.7071 0.7071 0.7071 -114.9429 172.3944)" class="st114" width="1.3" height="198"/>
				
					<rect x="149" y="126.9" transform="matrix(0.7071 -0.7071 0.7071 0.7071 -115.8823 172.0136)" class="st115" width="1.3" height="198"/>
				
					<rect x="148.1" y="127.8" transform="matrix(0.7071 -0.7071 0.7071 0.7071 -116.8337 171.6036)" class="st116" width="1.3" height="198"/>
				
					<rect x="147.1" y="128.7" transform="matrix(0.7071 -0.7071 0.7071 0.7071 -117.7438 171.1521)" class="st117" width="1.3" height="198"/>
				
					<rect x="146.2" y="129.7" transform="matrix(0.7071 -0.7071 0.7071 0.7071 -118.7245 170.8128)" class="st118" width="1.3" height="198"/>
				
					<rect x="145.3" y="130.6" transform="matrix(0.7071 -0.7071 0.7071 0.7071 -119.6053 170.432)" class="st119" width="1.3" height="198"/>
				
					<rect x="144.3" y="131.5" transform="matrix(0.7071 -0.7071 0.7071 0.7071 -120.5446 170.0512)" class="st120" width="1.3" height="198"/>
				
					<rect x="143.4" y="132.5" transform="matrix(0.7071 -0.7071 0.7071 0.7071 -121.4961 169.6412)" class="st121" width="1.3" height="198"/>
				
					<rect x="142.4" y="133.5" transform="matrix(0.7071 -0.7071 0.7071 0.7071 -122.4769 169.219)" class="st122" width="1.3" height="198"/>
				
					<rect x="141.5" y="134.5" transform="matrix(0.7071 -0.7071 0.7071 0.7071 -123.4576 168.8797)" class="st123" width="1.3" height="198"/>
				
					<rect x="140.5" y="135.3" transform="matrix(0.7071 -0.7071 0.7071 0.7071 -124.3677 168.4282)" class="st124" width="1.3" height="198"/>
				
					<rect x="139.6" y="136.3" transform="matrix(0.7071 -0.7071 0.7071 0.7071 -125.2777 168.1181)" class="st125" width="1.3" height="198"/>
				
					<rect x="138.7" y="137.2" transform="matrix(0.7071 -0.7071 0.7071 0.7071 -126.2292 167.7081)" class="st126" width="1.3" height="198"/>
				
					<rect x="137.7" y="138.1" transform="matrix(0.7071 -0.7071 0.7071 0.7071 -127.1393 167.2566)" class="st127" width="1.3" height="198"/>
				
					<rect x="136.8" y="139.1" transform="matrix(0.7071 -0.7071 0.7071 0.7071 -128.12 166.9173)" class="st127" width="1.3" height="198"/>
				
					<rect x="135.8" y="140" transform="matrix(0.7071 -0.7071 0.7071 0.7071 -129.0301 166.4658)" class="st128" width="1.3" height="198"/>
				
					<rect x="134.9" y="141" transform="matrix(0.7071 -0.7071 0.7071 0.7071 -130.0108 166.1265)" class="st129" width="1.3" height="198"/>
				
					<rect x="134" y="141.9" transform="matrix(0.7071 -0.7071 0.7071 0.7071 -130.8916 165.7457)" class="st129" width="1.3" height="198"/>
				
					<rect x="133" y="142.8" transform="matrix(0.7071 -0.7071 0.7071 0.7071 -131.8724 165.3235)" class="st130" width="1.3" height="198"/>
				
					<rect x="132.1" y="143.9" transform="matrix(0.7071 -0.7071 0.7071 0.7071 -132.8531 164.9842)" class="st131" width="1.3" height="198"/>
				
					<rect x="131.1" y="144.7" transform="matrix(0.7071 -0.7071 0.7071 0.7071 -133.7632 164.5327)" class="st131" width="1.3" height="198"/>
				
					<rect x="130.2" y="145.7" transform="matrix(0.7071 -0.7071 0.7071 0.7071 -134.7439 164.1934)" class="st132" width="1.3" height="198"/>
				
					<rect x="129.3" y="146.6" transform="matrix(0.7071 -0.7071 0.7071 0.7071 -135.6247 163.8126)" class="st133" width="1.3" height="198"/>
				
					<rect x="128.3" y="147.5" transform="matrix(0.7071 -0.7071 0.7071 0.7071 -136.5347 163.3611)" class="st133" width="1.3" height="198"/>
				
					<rect x="127.4" y="148.5" transform="matrix(0.7071 -0.7071 0.7071 0.7071 -137.5155 163.0218)" class="st134" width="1.3" height="198"/>
				
					<rect x="126.4" y="149.4" transform="matrix(0.7071 -0.7071 0.7071 0.7071 -138.4256 162.5703)" class="st135" width="1.3" height="198"/>
				
					<rect x="125.5" y="150.4" transform="matrix(0.7071 -0.7071 0.7071 0.7071 -139.4063 162.231)" class="st136" width="1.3" height="198"/>
				
					<rect x="124.6" y="151.4" transform="matrix(0.7071 -0.7071 0.7071 0.7071 -140.3578 161.8795)" class="st136" width="1.3" height="198"/>
				
					<rect x="123.6" y="152.3" transform="matrix(0.7071 -0.7071 0.7071 0.7071 -141.2971 161.4987)" class="st137" width="1.3" height="198"/>
				
					<rect x="122.7" y="153.3" transform="matrix(0.7071 -0.7071 0.7071 0.7071 -142.2486 161.0887)" class="st138" width="1.3" height="198"/>
				
					<rect x="121.7" y="154.1" transform="matrix(0.7071 -0.7071 0.7071 0.7071 -143.1586 160.6372)" class="st139" width="1.3" height="198"/>
				
					<rect x="120.8" y="155.1" transform="matrix(0.7071 -0.7071 0.7071 0.7071 -144.1394 160.2979)" class="st139" width="1.3" height="198"/>
				
					<rect x="119.9" y="156" transform="matrix(0.7071 -0.7071 0.7071 0.7071 -145.0202 159.9171)" class="st139" width="1.3" height="198"/>
				
					<rect x="118.9" y="157" transform="matrix(0.7071 -0.7071 0.7071 0.7071 -145.9595 159.5364)" class="st140" width="1.3" height="198"/>
				
					<rect x="118" y="157.9" transform="matrix(0.7071 -0.7071 0.7071 0.7071 -146.911 159.1263)" class="st141" width="1.3" height="198"/>
				
					<rect x="117" y="158.8" transform="matrix(0.7071 -0.7071 0.7071 0.7071 -147.821 158.6748)" class="st142" width="1.3" height="198"/>
				
					<rect x="116.1" y="159.8" transform="matrix(0.7071 -0.7071 0.7071 0.7071 -148.8018 158.3355)" class="st142" width="1.3" height="198"/>
				
					<rect x="115.2" y="160.8" transform="matrix(0.7071 -0.7071 0.7071 0.7071 -149.7533 157.984)" class="st142" width="1.3" height="198"/>
				
					<rect x="114.2" y="161.7" transform="matrix(0.7071 -0.7071 0.7071 0.7071 -150.6926 157.6033)" class="st143" width="1.3" height="198"/>
				
					<rect x="113.3" y="162.6" transform="matrix(0.7071 -0.7071 0.7071 0.7071 -151.6441 157.1932)" class="st143" width="1.3" height="198"/>
				
					<rect x="112.3" y="163.5" transform="matrix(0.7071 -0.7071 0.7071 0.7071 -152.5541 156.7417)" class="st143" width="1.3" height="198"/>
				
					<rect x="111.4" y="164.5" transform="matrix(0.7071 -0.7071 0.7071 0.7071 -153.5349 156.4024)" class="st143" width="1.3" height="198"/>
				
					<rect x="110.5" y="165.4" transform="matrix(0.7071 -0.7071 0.7071 0.7071 -154.4156 156.0216)" class="st144" width="1.3" height="198"/>
				
					<rect x="109.5" y="166.4" transform="matrix(0.7071 -0.7071 0.7071 0.7071 -155.355 155.6409)" class="st144" width="1.3" height="198"/>
				
					<rect x="108.6" y="167.3" transform="matrix(0.7071 -0.7071 0.7071 0.7071 -156.3064 155.2308)" class="st144" width="1.3" height="198"/>
				
					<rect x="107.6" y="168.2" transform="matrix(0.7071 -0.7071 0.7071 0.7071 -157.2165 154.7794)" class="st144" width="1.3" height="198"/>
				
					<rect x="106.7" y="169.3" transform="matrix(0.7071 -0.7071 0.7071 0.7071 -158.268 154.4693)" class="st144" width="1.3" height="198"/>
				
					<rect x="105.8" y="170.2" transform="matrix(0.7071 -0.7071 0.7071 0.7071 -159.1487 154.0885)" class="st144" width="1.3" height="198"/>
				
					<rect x="104.8" y="171.1" transform="matrix(0.7071 -0.7071 0.7071 0.7071 -160.0881 153.7078)" class="st144" width="1.3" height="198"/>
				
					<rect x="103.9" y="172" transform="matrix(0.7071 -0.7071 0.7071 0.7071 -161.0396 153.2977)" class="st144" width="1.3" height="198"/>
				
					<rect x="102.9" y="172.9" transform="matrix(0.7071 -0.7071 0.7071 0.7071 -161.9496 152.8463)" class="st144" width="1.3" height="198"/>
				
					<rect x="102" y="173.9" transform="matrix(0.7071 -0.7071 0.7071 0.7071 -162.9304 152.5069)" class="st145" width="1.3" height="198"/>
				
					<rect x="101.1" y="174.8" transform="matrix(0.7071 -0.7071 0.7071 0.7071 -163.8111 152.1262)" class="st145" width="1.3" height="198"/>
				
					<rect x="100.1" y="175.7" transform="matrix(0.7071 -0.7071 0.7071 0.7071 -164.7505 151.7454)" class="st145" width="1.3" height="198"/>
				
					<rect x="99.2" y="176.7" transform="matrix(0.7071 -0.7071 0.7071 0.7071 -165.7019 151.3354)" class="st145" width="1.3" height="198"/>
				
					<rect x="98.2" y="177.6" transform="matrix(0.7071 -0.7071 0.7071 0.7071 -166.612 150.8839)" class="st145" width="1.3" height="198"/>
				<rect x="98.3" y="178.1" class="st145" width="0" height="198"/>
				<rect x="98.3" y="178.1" class="st132" width="0" height="198"/>
				<rect x="98.4" y="178.2" class="st128" width="0" height="198"/>
				<rect x="98.4" y="178.2" class="st127" width="0" height="198"/>
				<rect x="98.2" y="178.2" class="st146" width="0" height="198"/>
				<rect x="98.2" y="178.2" class="st146" width="0" height="198"/>
				<rect x="98.3" y="178.3" class="st146" width="0" height="198"/>
				<path class="st146" d="M28.2,207.3l140,140L28.2,207.3z"/>
			</g>
		</g>
		<polygon class="st0" points="66.4,169.1 187.3,48.2 327.3,188.2 327.3,150 187.3,10 47.3,150 		"/>
	</g>
</g>
</svg>
